<svg xmlns="http://www.w3.org/2000/svg" width="38" height="38" viewBox="0 0 38 38"><defs><style>.a{fill:#0d6d6f;stroke:#00d3cf;stroke-width:2px;}.b{fill:#00d3cf;}.c{stroke:none;}.d{fill:none;}</style></defs><g transform="translate(-1120 -217)"><g transform="translate(162.503 -175.497)"><g class="a" transform="translate(957.497 392.497)"><circle class="c" cx="19" cy="19" r="19"/><circle class="d" cx="19" cy="19" r="18"/></g></g><path class="b" d="M801.731,868.53l6.363-6.363a1.6,1.6,0,0,0-2.258-2.26l-6.365,6.363-6.363-6.363a1.6,1.6,0,1,0-2.258,2.26l6.363,6.363-6.363,6.361a1.6,1.6,0,1,0,2.258,2.26l6.363-6.363,6.365,6.363a1.6,1.6,0,1,0,2.258-2.26Z" transform="translate(339.528 -632.529)"/></g></svg>