<svg width="26" height="27" viewBox="0 0 26 27" fill="none" xmlns="http://www.w3.org/2000/svg">
    <path fill-rule="evenodd" clip-rule="evenodd" d="M2.59991 5.69995C2.37006 5.69995 2.14962 5.79126 1.98709 5.95379C1.82456 6.11632 1.73325 6.33676 1.73325 6.56662C1.73325 6.79647 1.82456 7.01691 1.98709 7.17944C2.14962 7.34197 2.37006 7.43328 2.59991 7.43328H23.3999C23.6298 7.43328 23.8502 7.34197 24.0127 7.17944C24.1753 7.01691 24.2666 6.79647 24.2666 6.56662C24.2666 6.33676 24.1753 6.11632 24.0127 5.95379C23.8502 5.79126 23.6298 5.69995 23.3999 5.69995H2.59991ZM1.73325 13.5C1.73325 13.2701 1.82456 13.0497 1.98709 12.8871C2.14962 12.7246 2.37006 12.6333 2.59991 12.6333H23.3999C23.6298 12.6333 23.8502 12.7246 24.0127 12.8871C24.1753 13.0497 24.2666 13.2701 24.2666 13.5C24.2666 13.7298 24.1753 13.9502 24.0127 14.1128C23.8502 14.2753 23.6298 14.3666 23.3999 14.3666H2.59991C2.37006 14.3666 2.14962 14.2753 1.98709 14.1128C1.82456 13.9502 1.73325 13.7298 1.73325 13.5ZM1.73325 20.4333C1.73325 20.2034 1.82456 19.983 1.98709 19.8205C2.14962 19.6579 2.37006 19.5666 2.59991 19.5666H23.3999C23.6298 19.5666 23.8502 19.6579 24.0127 19.8205C24.1753 19.983 24.2666 20.2034 24.2666 20.4333C24.2666 20.6631 24.1753 20.8836 24.0127 21.0461C23.8502 21.2086 23.6298 21.3 23.3999 21.3H2.59991C2.37006 21.3 2.14962 21.2086 1.98709 21.0461C1.82456 20.8836 1.73325 20.6631 1.73325 20.4333Z" fill="white"/>
</svg>
