<svg width="319" height="53" viewBox="0 0 319 53" fill="none" xmlns="http://www.w3.org/2000/svg">
<path d="M313.52 52.0612H262.847C261.111 52.0612 259.515 51.1588 258.612 49.6316C257.71 48.1045 257.71 46.2303 258.612 44.7726L282.56 3.2625C283.741 1.24947 285.892 0 288.183 0C290.474 0 292.626 1.24947 293.806 3.2625L317.754 44.7726C318.656 46.2997 318.656 48.1739 317.754 49.6316C316.851 51.1588 315.255 52.0612 313.52 52.0612ZM271.315 42.3431H305.051L288.183 13.1194L271.315 42.3431Z" fill="url(#paint0_linear_79_2612)"/>
<path d="M179.688 1.04123H173.51C172.191 1.04123 171.497 1.73538 171.497 3.12368V36.1652L141.926 1.80479C141.44 1.31889 140.954 1.04123 140.329 1.04123H132.694C131.375 1.04123 130.681 1.73538 130.681 3.12368V50.0481C130.681 51.4364 131.375 52.1306 132.694 52.1306H138.872C140.191 52.1306 140.885 51.4364 140.885 50.0481V16.3125L171.288 51.5059C171.635 51.9223 172.121 52.2 172.746 52.2H179.688C181.006 52.2 181.701 51.5059 181.701 50.1176V3.12368C181.631 1.73538 181.006 1.04123 179.688 1.04123Z" fill="white"/>
<path d="M247.09 48.7987L227.584 25.4059L244.66 4.44256C244.938 4.02607 245.077 3.54017 245.077 3.05426C245.077 1.73538 244.382 1.04123 243.063 1.04123H234.595C233.901 1.04123 233.415 1.31889 232.998 1.80479L220.99 17.1455L208.981 1.87421C208.564 1.31889 208.009 1.04123 207.315 1.04123H198.846C197.527 1.04123 196.833 1.73538 196.833 3.05426C196.833 3.54017 196.972 4.02607 197.25 4.44256L214.326 25.4059L194.89 48.7293C194.542 49.1457 194.334 49.6317 194.334 50.1176C194.334 51.4364 195.028 52.1306 196.417 52.1306H205.371C206.065 52.1306 206.621 51.8529 207.037 51.2976L220.99 33.8051L235.011 51.4364C235.428 51.9224 235.983 52.1306 236.608 52.1306H245.562C246.881 52.1306 247.575 51.4364 247.575 50.1176C247.575 49.6317 247.437 49.1458 247.09 48.7987Z" fill="white"/>
<path d="M95.6956 3.2625C94.5155 1.24947 92.3637 0 90.073 0C87.7823 0 85.6304 1.24947 84.4504 3.2625L60.5022 44.7726C59.5998 46.2997 59.5998 48.1739 60.5022 49.6316C61.4046 51.1588 63.0012 52.0612 64.7365 52.0612H115.409C117.145 52.0612 118.741 51.1588 119.644 49.6316C120.546 48.1045 120.546 46.2303 119.644 44.7726L95.6956 3.2625ZM73.2052 42.3431L90.073 13.1194L106.941 42.3431H73.2052Z" fill="white"/>
<path d="M45.5087 25.3364C47.5911 22.6293 48.6324 19.575 48.6324 16.1737C48.6324 12.0088 47.1052 8.46862 44.1204 5.48378C41.1356 2.49894 37.526 1.04123 33.2917 1.04123H3.02678C1.63848 1.04123 0.944336 1.73538 0.944336 3.12368V50.0481C0.944336 51.4364 1.63848 52.1306 3.02678 52.1306H35.9294C40.1638 52.1306 43.8427 50.6729 46.7582 47.7575C49.743 44.842 51.2007 41.3019 51.2007 37.137C51.2701 32.2085 49.3265 28.3213 45.5087 25.3364ZM11.1483 12.217C11.1483 10.8981 11.8425 10.204 13.1614 10.204H33.1528C34.5411 10.204 35.7212 10.7593 36.7624 11.9394C37.7342 13.05 38.2896 14.4383 38.2896 16.1043C38.2896 17.7008 37.8036 19.0891 36.7624 20.2692C35.7906 21.4492 34.5411 22.0045 33.1528 22.0045H13.1614C11.8425 22.0045 11.1483 21.3104 11.1483 19.9915V12.217ZM39.3308 41.2324C38.359 42.4125 37.1095 42.9678 35.7212 42.9678H13.1614C11.8425 42.9678 11.1483 42.2737 11.1483 40.8854V33.2497C11.1483 31.8614 11.8425 31.1673 13.1614 31.1673H35.7906C37.1789 31.1673 38.359 31.7226 39.4002 32.9027C40.372 34.0827 40.9273 35.471 40.9273 37.0676C40.8579 38.6641 40.372 40.0524 39.3308 41.2324Z" fill="white"/>
<defs>
<linearGradient id="paint0_linear_79_2612" x1="267.658" y1="58.9281" x2="308.69" y2="17.8965" gradientUnits="userSpaceOnUse">
<stop stop-color="#0073D1"/>
<stop offset="0.0645186" stop-color="#0082CE"/>
<stop offset="0.2231" stop-color="#00A0C9"/>
<stop offset="0.3899" stop-color="#00B8C4"/>
<stop offset="0.5665" stop-color="#00C9C1"/>
<stop offset="0.7596" stop-color="#00D3C0"/>
<stop offset="1" stop-color="#00D6BF"/>
</linearGradient>
</defs>
</svg>
