<svg width="98" height="28" viewBox="0 0 98 28" fill="none" xmlns="http://www.w3.org/2000/svg">
<path d="M33.3281 12.2388V14.6235H35.7857V27.523H38.3726V14.6235H40.8301V12.2388H33.3281Z" fill="#C1FF00"/>
<path d="M41.6279 12.651V27.5233H48.2892V25.1385H44.2364V20.976H47.47V18.5912H44.2364V14.6455H48.2892V12.2607H47.6856C46.6939 12.8678 45.5083 13.2363 44.2579 13.2363C43.331 13.193 42.4256 12.9979 41.6279 12.651Z" fill="#C1FF00"/>
<path d="M54.4117 27.4365L54.4333 27.5232H57.0848L57.0202 27.3497C56.783 26.8077 56.783 26.2658 56.783 25.572V23.2523C56.783 21.5829 56.3303 20.564 55.3602 20.0437C56.2872 19.5017 56.7615 18.5044 56.7615 16.9868V15.7944C56.7615 13.3446 55.6189 12.2173 53.1614 12.2173H49.4966V27.5015H52.0835V21.3661H52.7733C53.7865 21.3661 54.1961 21.8648 54.1961 23.1656V25.5286C54.1961 26.7861 54.2824 27.0245 54.4117 27.4365ZM54.1746 17.5288C54.1746 18.5694 53.7865 19.003 52.8811 19.003H52.0835V14.6237H53.0967C53.8728 14.6237 54.1746 15.0357 54.1746 16.0546V17.5288Z" fill="#C1FF00"/>
<path d="M64.6948 12.2388L63.1858 22.2765L61.569 12.2388H58.0767V27.523H60.3618V18.2224L61.8708 27.4363L61.8923 27.5447H64.3283L65.7296 18.2224V27.5447H68.1871V13.2577C66.9368 13.2577 65.7511 12.8892 64.7595 12.2604H64.6948V12.2388Z" fill="#C1FF00"/>
<path d="M72.2397 12.2388H69.6528V27.523H72.2397V12.2388Z" fill="#C1FF00"/>
<path d="M79.0734 20.4554L76.853 12.2388H73.7056V27.523H76.0553V17.3985L78.7716 27.523H81.4016V12.2388H79.0734V20.4554Z" fill="#C1FF00"/>
<path d="M85.0227 24.7915H87.6958L88.1054 27.5232H90.7139L88.2994 12.3257L88.2779 12.2173H84.6347L82.2418 27.3931L82.2202 27.5232H84.6131L85.0227 24.7915ZM86.3377 15.8161L87.3294 22.4935H85.3461L86.3377 15.8161Z" fill="#C1FF00"/>
<path d="M98.0004 25.1382H94.1416V12.2388H91.5547V27.523H98.0004V25.1382Z" fill="#C1FF00"/>
<path d="M64.4142 10.114C65.3627 11.1329 66.7208 11.7833 68.2299 11.7833V9.55031C66.5699 9.55031 65.2334 8.20617 65.2334 6.53683C65.2334 4.86749 66.5699 3.52334 68.2299 3.52334C69.5018 3.52334 70.5796 4.30382 71.0108 5.43116H68.2299V7.66417H73.4468V6.55851C73.4468 3.6751 71.1186 1.31201 68.2299 1.31201C66.5268 1.31201 65.0394 2.13584 64.0908 3.39327C64.3064 3.97862 64.4357 4.60733 64.4357 5.25772V10.114H64.4142Z" fill="white"/>
<path d="M62.8191 4.13038C62.7328 3.82686 62.6035 3.54502 62.4526 3.28487C61.7627 2.11416 60.5124 1.31201 59.0681 1.31201H59.0465C57.9255 1.31201 56.9339 1.78897 56.2225 2.52608C55.5111 1.76729 54.4979 1.31201 53.3984 1.31201H53.3769C51.9541 1.31201 50.7253 2.0708 50.0354 3.21983C50.5959 4.19542 50.9409 5.34444 50.9409 6.55851C50.9409 8.11945 50.4019 9.52863 49.5181 10.6777H51.6738V5.2794C51.6738 4.32549 52.4499 3.54502 53.3984 3.54502H53.42C54.3685 3.54502 55.1446 4.32549 55.1446 5.2794V10.6777H57.365V5.2794C57.365 4.32549 58.1411 3.54502 59.0896 3.54502H59.1112C60.0597 3.54502 60.8358 4.32549 60.8358 5.2794V10.6777H63.0562V5.30108C62.9915 4.86749 62.9269 4.49893 62.8191 4.13038Z" fill="white"/>
<path d="M49.4101 5.88644C49.3239 5.25772 49.1299 4.65069 48.8496 4.1087C48.6987 3.82686 48.5263 3.58838 48.3538 3.32823C47.4053 2.11416 45.9178 1.31201 44.2579 1.31201H42.7273V3.54502H44.2579C45.8962 3.54502 47.2328 4.88917 47.2328 6.53683C47.2328 8.18449 45.8962 9.52863 44.2579 9.52863C42.6195 9.52863 41.2829 8.18449 41.2829 6.53683V4.93253H39.0625V6.53683C39.0625 9.42023 41.3907 11.7616 44.2579 11.7616C45.7238 11.7616 47.0388 11.1546 47.9873 10.179C48.2676 9.89719 48.5047 9.59367 48.6987 9.2468C49.0652 8.63976 49.3239 7.94601 49.4101 7.2089C49.4317 6.9921 49.4532 6.77531 49.4532 6.53683C49.4532 6.32003 49.4317 6.10323 49.4101 5.88644Z" fill="white"/>
<path d="M37.1867 1.31221C35.0309 1.31221 33.2632 3.08995 33.2632 5.25792V10.6562H35.4621V5.25792C35.4621 4.30401 36.2381 3.52354 37.1867 3.52354H41.261V1.29053H37.1867V1.31221Z" fill="white"/>
<path d="M22.7648 16.6181L22.808 16.7048V16.7482L22.7864 16.8349V16.8566L22.7648 16.8999L22.7433 16.9216C22.7433 16.9216 22.7217 16.9433 22.7217 16.965L11.7705 27.9783L15.5431 28L26.6668 16.8132L15.6509 5.73486L13.7754 7.621L22.7002 16.5964C22.7433 16.5747 22.7648 16.5964 22.7648 16.6181Z" fill="#C1FF00"/>
<path d="M6.57563 14.1032L15.5004 5.12774C15.5436 5.08438 15.6298 5.04102 15.6945 5.04102C15.7591 5.04102 15.8022 5.0627 15.8454 5.08438H15.9316V5.14942L26.8397 16.1194L26.8613 12.3254L15.7376 1.13867L4.72168 12.217L6.57563 14.1032Z" fill="#98B200"/>
<path d="M4.11788 12.4122C4.07476 12.3689 4.03165 12.2822 4.03165 12.2171C4.03165 12.1521 4.05321 12.0654 4.11788 12.022L15.0691 1.00869L11.2965 0.965332L0.172852 12.1521L11.1887 23.2304L13.0643 21.3443L4.11788 12.4122Z" fill="#C1FF00"/>
<path d="M20.2856 14.8839L11.3608 23.8593C11.2746 23.946 11.1237 23.9677 11.0159 23.9027H10.9297V23.8376L0.0215575 12.8677L0 16.6616L11.1237 27.8484L22.1396 16.77L20.2856 14.8839Z" fill="#AFD805"/>
</svg>
