<svg width="70" height="70" viewBox="0 -4 70 70" fill="none" xmlns="http://www.w3.org/2000/svg">
<path d="M31.5105 60.7601H39.6521L69.7055 8.49316H20.3535L24.4746 15.6799H56.086C56.3373 15.6799 56.5886 15.8306 56.6891 16.0317C56.8398 16.2327 56.8398 16.5342 56.6891 16.7353L31.5105 60.7601Z" fill="#15B3B0"/>
<path d="M46.4874 17.0868L30.8073 44.3259C30.556 44.7782 29.8525 44.7782 29.5509 44.3259L4.22156 0.703125L0 7.78931L30.3048 60.0562L54.8803 17.0868H46.4874Z" fill="#14938D"/>
<path d="M5.47852 0L30.255 42.6176L34.2756 35.5817L23.5207 16.8862C23.4704 16.836 23.4704 16.7857 23.4201 16.7857L18.495 8.19183C18.3442 7.99081 18.3442 7.68927 18.495 7.48824C18.5955 7.33747 18.7463 7.1867 18.9473 7.13645C18.9976 7.13645 19.0478 7.13645 19.1483 7.13645H69.7065L65.7362 0H5.47852Z" fill="#137069"/>
</svg>
