<?xml version="1.0" encoding="utf-8"?>
<!-- Generator: Adobe Illustrator 25.4.1, SVG Export Plug-In . SVG Version: 6.00 Build 0)  -->
<svg version="1.1" id="Layer_1" xmlns="http://www.w3.org/2000/svg" xmlns:xlink="http://www.w3.org/1999/xlink" x="0px" y="0px"
	 viewBox="0 0 600 600" style="enable-background:new 0 0 600 600;" xml:space="preserve">
<style type="text/css">
	.st0{fill:#C1FF00;}
</style>
<path class="st0" d="M326.3,335.4c0-27.5,5.6-54.1,16.7-79c4-8.9,14.4-12.9,23.3-9c8.9,4,12.9,14.4,9,23.3
	c-9.1,20.4-13.7,42.2-13.7,64.7c0,58.6,31.9,109.8,79.2,137.4l72.2-72.2l35.3-35.3l21.9-21.9c23.9-23.9,23.9-62.8,0-86.7L435.6,122
	L419,105.3l-76.1-76.1c-23.9-23.9-62.8-23.9-86.7,0L28.9,256.6C5,280.5,5,319.4,28.9,343.3l136.9,136.9V281.5
	c0-77.5,63.1-140.6,140.6-140.6h87.7c9.8,0,17.7,7.9,17.7,17.7s-7.9,17.7-17.7,17.7h-87.7c-58,0-105.3,47.2-105.3,105.3v230.7
	c0,1-0.1,2.1-0.3,3.1l55.4,55.4c23.9,23.9,62.8,23.9,86.7,0l28.8-28.8l15.4-15.4l28-28C361.7,463.8,326.3,403.7,326.3,335.4z"/>
</svg>
