<?xml version="1.0" encoding="utf-8"?>
<!-- Generator: Adobe Illustrator 25.2.0, SVG Export Plug-In . SVG Version: 6.00 Build 0)  -->
<svg version="1.1" id="Layer_1" xmlns="http://www.w3.org/2000/svg" xmlns:xlink="http://www.w3.org/1999/xlink" x="0px" y="0px"
	 viewBox="0 0 5753.1 1152.3" style="enable-background:new 0 0 5753.1 1152.3;" xml:space="preserve">
<style type="text/css">
	.st0{fill:url(#SVGID_1_);}
	.st1{fill:url(#SVGID_2_);}
	.st2{fill:url(#SVGID_3_);}
	.st3{fill:url(#SVGID_4_);}
	.st4{fill:url(#SVGID_5_);}
</style>
<g>
	<g>
		<linearGradient id="SVGID_1_" gradientUnits="userSpaceOnUse" x1="2887.7468" y1="985.2614" x2="2887.7468" y2="172.5924">
			<stop  offset="0.1212" style="stop-color:#15B3B0"/>
			<stop  offset="0.5219" style="stop-color:#7D6596"/>
			<stop  offset="0.9374" style="stop-color:#ED127A"/>
		</linearGradient>
		<polygon class="st0" points="2481.5,985.3 3294,985.3 3294,821.4 2645.3,821.4 2645.3,172.6 2481.5,172.6 		"/>
		<linearGradient id="SVGID_2_" gradientUnits="userSpaceOnUse" x1="1625.2784" y1="985.2614" x2="1625.2784" y2="173.9042">
			<stop  offset="0.1212" style="stop-color:#15B3B0"/>
			<stop  offset="0.5219" style="stop-color:#7D6596"/>
			<stop  offset="0.9374" style="stop-color:#ED127A"/>
		</linearGradient>
		<path class="st1" d="M1218.6,821.4h813.3v163.8h-813.3V821.4z M2031.9,173.9h-813.3v163.8h813.3V173.9z M1802.6,497.7h-583.9
			v163.8h583.9V497.7z"/>
		<linearGradient id="SVGID_3_" gradientUnits="userSpaceOnUse" x1="418.4115" y1="986.5731" x2="418.4115" y2="8.7788">
			<stop  offset="0.1212" style="stop-color:#15B3B0"/>
			<stop  offset="0.5219" style="stop-color:#7D6596"/>
			<stop  offset="0.9374" style="stop-color:#ED127A"/>
		</linearGradient>
		<polygon class="st2" points="450.7,733.4 178.4,8.8 3.4,8.8 370.9,986.6 531.4,986.6 833.4,172.6 658.7,172.6 		"/>
		<linearGradient id="SVGID_4_" gradientUnits="userSpaceOnUse" x1="5273.6465" y1="1150.3867" x2="5273.6465" y2="172.5924">
			<stop  offset="0.1212" style="stop-color:#15B3B0"/>
			<stop  offset="0.5219" style="stop-color:#7D6596"/>
			<stop  offset="0.9374" style="stop-color:#ED127A"/>
		</linearGradient>
		<polygon class="st3" points="5740.6,1150.4 5314.5,570 5606.1,172.6 5402.9,172.6 5212.8,431.5 5022.8,172.6 4819.6,172.6 
			5111.2,570 4806.7,984.9 4808.9,986.6 5008.7,986.6 5212.8,708.4 5537.4,1150.4 		"/>
	</g>
	<g>
		<linearGradient id="SVGID_5_" gradientUnits="userSpaceOnUse" x1="4094.0889" y1="1010.5039" x2="4094.0889" y2="148.7229">
			<stop  offset="0.1212" style="stop-color:#15B3B0"/>
			<stop  offset="0.5219" style="stop-color:#7D6596"/>
			<stop  offset="0.9374" style="stop-color:#ED127A"/>
		</linearGradient>
		<path class="st4" d="M4094.8,1010.5h-1.4c-237.2,0-430.2-193-430.2-430.2c0-238.6,193-431.6,430.2-431.6
			c238.6,0,431.6,193,431.6,430.2C4525,817.5,4332,1010.5,4094.8,1010.5z M4094.8,312.5c-148.3,0-267.8,119.5-267.8,266.4
			c0,148.3,119.5,267.8,266.4,267.8h1.4c146.9,0,266.4-119.5,266.4-266.4C4361.2,432,4241.7,312.5,4094.8,312.5z"/>
	</g>
</g>
</svg>
