<?xml version="1.0" encoding="utf-8"?>
<!-- Generator: Adobe Illustrator 25.0.0, SVG Export Plug-In . SVG Version: 6.00 Build 0)  -->
<svg version="1.1" id="Layer_1" xmlns="http://www.w3.org/2000/svg" xmlns:xlink="http://www.w3.org/1999/xlink" x="0px" y="0px"
	 viewBox="0 0 200 200" style="enable-background:new 0 0 200 200;" xml:space="preserve">
<style type="text/css">
	.st0{fill:#00B3ED;}
</style>
<g>
	<rect id="Rectangle_48_1_" x="158.7" y="92.8" width="28.8" height="72.1"/>
	<path id="Path_64_1_" class="st0" d="M158.7,83.9l25.7-11.2c1.9-0.8,3.1-2.7,3.1-4.8V55.3h-0.1l-24.3,10.6
		c-2.7,1.2-4.4,3.8-4.4,6.7V83.9z"/>
	<path id="Path_65_1_" d="M38.9,92.3c4.7-21.6,26-35.2,47.6-30.5c18.4,4,31.4,20.3,31.4,39.1c0,2.5-0.3,4.9-0.8,7.3l13.3,29.1
		C151,108,144,67.5,114.7,46.9S45,33.3,24.3,62.6S10.7,132.4,40,153c14,9.9,31.3,13.8,48.2,10.9l-10.4-23.1
		c-22.1-0.1-39.9-18-39.9-40.1C38,97.9,38.3,95.1,38.9,92.3"/>
	<path id="Path_66_1_" class="st0" d="M130.8,164.9h-30l-18.9-42h29.9L130.8,164.9z"/>
</g>
</svg>
