<?xml version="1.0" encoding="utf-8"?>
<!-- Generator: Adobe Illustrator 25.2.0, SVG Export Plug-In . SVG Version: 6.00 Build 0)  -->
<svg version="1.1" id="Layer_1" xmlns="http://www.w3.org/2000/svg" xmlns:xlink="http://www.w3.org/1999/xlink" x="0px" y="0px"
	 viewBox="0 0 22 22" style="enable-background:new 0 0 22 22;" xml:space="preserve">
<style type="text/css">
	.st0{fill:#067C82;}
</style>
<g>
	<g>
		<path class="st0" d="M11,19.94c-4.93,0-8.94-4.01-8.94-8.94S6.07,2.06,11,2.06s8.94,4.01,8.94,8.94S15.93,19.94,11,19.94z
			 M11,3.56C6.9,3.56,3.56,6.9,3.56,11S6.9,18.44,11,18.44s7.44-3.34,7.44-7.44S15.1,3.56,11,3.56z"/>
	</g>
</g>
<path class="st0" d="M14.16,14.59c-0.03-0.7-0.2-1.78-0.92-2.42c-0.64-0.57-0.64-0.6-0.64-0.86c0-0.21,0-0.25,0.64-0.82
	c0.88-0.78,0.94-2.22,0.91-2.84c0.25-0.08,0.42-0.31,0.42-0.59c0-0.34-0.28-0.62-0.62-0.62H8.04c-0.34,0-0.62,0.28-0.62,0.62
	c0,0.27,0.17,0.5,0.42,0.59C7.82,8.22,7.86,9.7,8.76,10.5c0.64,0.57,0.64,0.6,0.64,0.86c0,0.21,0,0.25-0.64,0.82
	c-0.71,0.64-0.89,1.71-0.92,2.41c-0.24,0.08-0.42,0.31-0.42,0.59c0,0.34,0.28,0.62,0.62,0.62h5.92c0.34,0,0.62-0.28,0.62-0.62
	C14.58,14.91,14.41,14.68,14.16,14.59z M10.63,11.32c0-0.67-0.18-0.96-1.06-1.74c-0.43-0.39-0.52-1.36-0.5-1.89h3.85
	c0.02,0.53-0.07,1.5-0.5,1.89c-0.89,0.79-1.06,1.07-1.06,1.78c0,0.67,0.18,0.96,1.06,1.74c0.37,0.33,0.47,1.04,0.5,1.46H9.08
	c0.03-0.42,0.13-1.13,0.5-1.46C10.47,12.3,10.64,12.02,10.63,11.32z"/>
</svg>
