<?xml version="1.0" encoding="utf-8"?>
<!-- Generator: Adobe Illustrator 25.2.0, SVG Export Plug-In . SVG Version: 6.00 Build 0)  -->
<svg version="1.1" id="Layer_1" xmlns="http://www.w3.org/2000/svg" xmlns:xlink="http://www.w3.org/1999/xlink" x="0px" y="0px"
	 viewBox="0 0 22 22" style="enable-background:new 0 0 22 22;" xml:space="preserve">
<style type="text/css">
	.st0{fill:#FFFFFF;}
</style>
<g>
	<path class="st0" d="M2.8,8.7h0.5c0,0,0,0,0,0h3.6c0.4,0,0.8-0.3,0.8-0.8S7.3,7.2,6.9,7.2H4.6C5.7,5.3,7.7,4,9.9,3.7
		c2-0.3,4,0.2,5.6,1.5c1.6,1.2,2.6,3,2.9,5c0.1,0.4,0.4,0.6,0.7,0.6c0,0,0.1,0,0.1,0c0.4-0.1,0.7-0.4,0.6-0.8
		c-0.7-4.9-5.2-8.4-10.2-7.7C7.2,2.5,5,3.9,3.6,6V3.8c0-0.4-0.3-0.8-0.8-0.8S2.1,3.4,2.1,3.8v4.1C2.1,8.3,2.4,8.7,2.8,8.7z"/>
	<path class="st0" d="M19.2,13.3h-0.5c0,0,0,0,0,0h-3.6c-0.4,0-0.8,0.3-0.8,0.8s0.3,0.8,0.8,0.8h2.4c-1.2,1.9-3.1,3.2-5.4,3.5
		c-2,0.3-4-0.2-5.6-1.5c-1.6-1.2-2.6-3-2.9-5c-0.1-0.4-0.4-0.7-0.8-0.6c-0.4,0.1-0.7,0.4-0.6,0.8c0.3,2.4,1.6,4.5,3.5,6
		c1.6,1.2,3.5,1.8,5.4,1.8c0.4,0,0.8,0,1.3-0.1c2.5-0.3,4.7-1.7,6.2-3.8v2.1c0,0.4,0.3,0.8,0.8,0.8s0.8-0.3,0.8-0.8v-4.1
		C19.9,13.7,19.6,13.3,19.2,13.3z"/>
</g>
</svg>
