<?xml version="1.0" encoding="utf-8"?>
<!-- Generator: Adobe Illustrator 25.2.0, SVG Export Plug-In . SVG Version: 6.00 Build 0)  -->
<svg version="1.1" id="Layer_1" xmlns="http://www.w3.org/2000/svg" xmlns:xlink="http://www.w3.org/1999/xlink" x="0px" y="0px"
	 viewBox="0 0 22 22" style="enable-background:new 0 0 22 22;" xml:space="preserve">
<style type="text/css">
	.st0{fill:#067C82;}
</style>
<g>
	<path class="st0" d="M20.4,10.2h-0.3V7.9c0-1-0.8-1.8-1.8-1.8h-0.3V3.8c0-1-0.8-1.8-1.8-1.8H6C4.5,2,3.2,3.3,3.2,4.8v4.7l0,0V10
		c0,0.4,0.3,0.8,0.7,0.8h0c0,0,0,0,0,0c0.4,0,0.7-0.3,0.7-0.8V9.5l0,0V8.6V8.5l0,0V7.3C5.1,7.5,5.6,7.6,6,7.6h12.4
		c0.1,0,0.3,0.1,0.3,0.3v2.3h-1.3c-1.6,0-2.8,1.3-2.8,2.8s1.3,2.8,2.8,2.8h1.3v2.3c0,0.1-0.1,0.3-0.3,0.3H6c-0.7,0-1.3-0.6-1.3-1.3
		v-2l0,0v-0.4c0-0.4-0.3-0.8-0.7-0.8h0c0,0,0,0,0,0c-0.4,0-0.7,0.3-0.7,0.8v0.7l0,0v1.6C3.2,18.7,4.5,20,6,20h12.4
		c1,0,1.8-0.8,1.8-1.8v-2.3h0.3c0.4,0,0.8-0.3,0.8-0.8V11C21.2,10.6,20.9,10.2,20.4,10.2z M7.1,6.1H6c-0.7,0-1.3-0.6-1.3-1.3
		S5.3,3.5,6,3.5h2.3C7.6,4.2,7.1,5.1,7.1,6.1z M8.6,6.1C8.7,4.9,9.8,3.9,11,3.9s2.3,1,2.5,2.2H8.6z M16.6,6.1H15
		c-0.1-1-0.5-1.9-1.2-2.6h2.5c0.1,0,0.3,0.1,0.3,0.3V6.1z M19.7,14.4h-2.4c-0.7,0-1.3-0.6-1.3-1.3s0.6-1.3,1.3-1.3h2.4V14.4z"/>
	<path class="st0" d="M7.5,9.1C7.4,9.2,7.3,9.4,7.3,9.6c0,0.2,0.1,0.4,0.2,0.5L9,11.7l-7.4,0c-0.4,0-0.8,0.3-0.8,0.8v0
		c0,0.2,0.1,0.4,0.2,0.5c0.1,0.1,0.3,0.2,0.5,0.2l7.4,0l-1.5,1.5c-0.2,0.1-0.2,0.3-0.2,0.5s0.1,0.4,0.2,0.5c0.3,0.3,0.8,0.3,1.1,0
		l2.8-2.8c0.1-0.1,0.2-0.2,0.2-0.3l0-0.1c0,0,0,0,0-0.1c0,0,0,0,0,0l0-0.1l0,0l0,0l0,0v-0.1l0-0.1v0l0,0l0,0c0-0.1-0.1-0.2-0.2-0.3
		L8.6,9.1C8.3,8.8,7.8,8.8,7.5,9.1z M11.5,12.6L11.5,12.6L11.5,12.6L11.5,12.6z"/>
</g>
</svg>
