<?xml version="1.0" encoding="utf-8"?>
<!-- Generator: Adobe Illustrator 25.2.0, SVG Export Plug-In . SVG Version: 6.00 Build 0)  -->
<svg version="1.1" id="Layer_1" xmlns="http://www.w3.org/2000/svg" xmlns:xlink="http://www.w3.org/1999/xlink" x="0px" y="0px"
	 viewBox="0 0 22 22" style="enable-background:new 0 0 22 22;" xml:space="preserve">
<style type="text/css">
	.st0{fill:#00DCCF;}
</style>
<g>
	<g>
		<path class="st0" d="M11.03,7.07c-0.53,0-0.97-0.43-0.97-0.96s0.42-0.96,0.95-0.96h0.01c0.53,0,0.96,0.43,0.96,0.96
			S11.56,7.07,11.03,7.07z"/>
	</g>
</g>
<g>
	<g>
		<path class="st0" d="M12.44,16.28h-1.41c-0.4,0-0.72-0.32-0.72-0.72v-5.39h-0.7c-0.4,0-0.72-0.32-0.72-0.72s0.32-0.72,0.72-0.72
			h1.41c0.4,0,0.72,0.32,0.72,0.72v5.39h0.69c0.4,0,0.72,0.32,0.72,0.72S12.84,16.28,12.44,16.28z"/>
	</g>
</g>
<g>
	<path class="st0" d="M11.03,19.94c-4.93,0-8.94-4.01-8.94-8.94s4.01-8.94,8.94-8.94s8.94,4.01,8.94,8.94S15.96,19.94,11.03,19.94z
		 M11.03,3.56c-4.1,0-7.44,3.34-7.44,7.44s3.34,7.44,7.44,7.44s7.44-3.34,7.44-7.44S15.13,3.56,11.03,3.56z"/>
</g>
</svg>
