<?xml version="1.0" encoding="utf-8"?>
<!-- Generator: Adobe Illustrator 25.2.0, SVG Export Plug-In . SVG Version: 6.00 Build 0)  -->
<svg version="1.1" id="Layer_1" xmlns="http://www.w3.org/2000/svg" xmlns:xlink="http://www.w3.org/1999/xlink" x="0px" y="0px"
	 viewBox="0 0 22 22" style="enable-background:new 0 0 22 22;" xml:space="preserve">
<style type="text/css">
	.st0{fill:#FFFFFF;}
</style>
<g>
	<path class="st0" d="M21.24,10.25h-0.28V7.91c0-0.98-0.8-1.78-1.78-1.78H18.9V3.8c0-0.98-0.8-1.78-1.78-1.78H6.84
		c-1.55,0-2.81,1.26-2.81,2.81v4.69l0,0v0.52c0,0.41,0.34,0.75,0.74,0.75h0.01c0.01,0,0.01,0,0.02,0c0.39,0,0.72-0.34,0.72-0.75
		V9.51l0,0v-0.9V8.48l0,0V7.31c0.39,0.21,0.84,0.32,1.31,0.32h12.35c0.15,0,0.28,0.12,0.28,0.28v2.34h-1.34
		c-1.55,0-2.81,1.26-2.81,2.81s1.26,2.81,2.81,2.81h1.34v2.34c0,0.15-0.12,0.28-0.28,0.28H6.84c-0.72,0-1.31-0.59-1.31-1.31v-1.96
		l0,0v-0.37c0-0.41-0.34-0.75-0.74-0.75H4.78c-0.01,0-0.01,0-0.02,0c-0.39,0-0.73,0.34-0.73,0.75v0.74l0,0v1.6
		c0,1.55,1.26,2.81,2.81,2.81h12.35c0.98,0,1.78-0.8,1.78-1.78v-2.34h0.28c0.41,0,0.75-0.34,0.75-0.75V11
		C21.99,10.59,21.66,10.25,21.24,10.25z M7.89,6.13H6.84c-0.72,0-1.31-0.59-1.31-1.31s0.59-1.31,1.31-1.31h2.25
		C8.39,4.19,7.95,5.11,7.89,6.13z M9.39,6.13c0.12-1.26,1.17-2.25,2.46-2.25s2.34,0.99,2.46,2.25H9.39z M17.4,6.13h-1.59
		c-0.06-1.02-0.5-1.94-1.19-2.62h2.5c0.15,0,0.28,0.12,0.28,0.28V6.13z M20.49,14.37h-2.37c-0.72,0-1.31-0.59-1.31-1.31
		s0.59-1.31,1.31-1.31h2.37V14.37z"/>
	<path class="st0" d="M4.1,15.77c0.14-0.14,0.22-0.33,0.22-0.54c0-0.2-0.08-0.39-0.22-0.54l-1.52-1.52l7.45,0.01
		c0.41,0,0.76-0.34,0.76-0.75V12.4c0-0.19-0.08-0.38-0.22-0.52c-0.14-0.14-0.33-0.22-0.53-0.22l-7.45-0.01l1.5-1.5
		C4.24,10,4.31,9.82,4.31,9.62c0-0.2-0.08-0.39-0.22-0.53c-0.3-0.3-0.76-0.3-1.06,0l-2.79,2.79c-0.1,0.1-0.16,0.21-0.2,0.33
		l-0.02,0.07c-0.01,0.03-0.01,0.04-0.01,0.06c0,0.01,0,0.03,0,0.04L0,12.43l0.02,0.02l0,0l-0.01,0.01v0.05l0.02,0.1v0.01l0.01,0.01
		l0.02,0.04c0.03,0.12,0.09,0.23,0.18,0.32l2.79,2.78C3.32,16.06,3.8,16.06,4.1,15.77z M0.1,12.25L0.1,12.25L0.1,12.25L0.1,12.25z"
		/>
</g>
</svg>
