<svg id="icon_-_Pancake" data-name="icon - Pancake" xmlns="http://www.w3.org/2000/svg" width="33.764" height="34.084" viewBox="0 0 33.764 34.084">
  <path id="Path_6320" data-name="Path 6320" d="M1.4,19.5v.107c0-.036.005-.07.005-.107Z" transform="translate(0.091 1.27)" fill="#00d3cf"/>
  <path id="Path_6321" data-name="Path 6321" d="M26.415,11.823l1.172-6.5A4.607,4.607,0,0,0,23.113,0,4.5,4.5,0,0,0,18.64,4.474v5.539a10.334,10.334,0,0,0-1.811-.107c-.639,0-1.278.107-1.917.107V4.474a4.462,4.462,0,1,0-8.841.852l1.172,6.5C3.089,13.634,0,16.829,0,20.77v2.45c0,3.3,2.13,6.071,5.113,7.882a22.23,22.23,0,0,0,11.716,2.982A22.23,22.23,0,0,0,28.545,31.1c3.089-1.811,5.219-4.58,5.219-7.882V20.77C33.764,16.829,30.569,13.634,26.415,11.823ZM32.273,22.08v.005c-.876,4.74-7.436,8.448-15.391,8.448-8.55,0-15.5-4.282-15.5-9.526v-.13c0-3.408,2.982-6.391,7.456-8.095L7.456,5.113a3.071,3.071,0,1,1,6.071-.639V11.4c.426,0,.959-.107,1.385-.107a11.576,11.576,0,0,1,1.917-.107c.639,0,1.172.107,1.811.107a6.073,6.073,0,0,1,1.385.107V4.367a3.091,3.091,0,0,1,3.089-3.089A3.148,3.148,0,0,1,26.2,5.006l-1.385,7.669c4.58,1.7,7.562,4.687,7.456,8.2Z" fill="#00d3cf"/>
  <path id="Path_6322" data-name="Path 6322" d="M12.008,19.056c0,1.385-.746,2.556-1.7,2.556s-1.7-1.172-1.7-2.556S9.346,16.5,10.3,16.5,12.008,17.672,12.008,19.056Z" transform="translate(0.56 1.075)" fill="#00d3cf"/>
  <path id="Path_6323" data-name="Path 6323" d="M23.108,19.056c0,1.385-.746,2.556-1.7,2.556s-1.7-1.172-1.7-2.556.746-2.556,1.7-2.556S23.108,17.672,23.108,19.056Z" transform="translate(1.283 1.075)" fill="#00d3cf"/>
</svg>
