<svg xmlns="http://www.w3.org/2000/svg"  width="22.854" height="16.584" viewBox="0 0 22.854 16.584"><defs><style>.a{fill:#fff;stroke:#fff;stroke-width:0.5px;}</style></defs><g transform="translate(-1288.274 -786.545)"><path class="a" d="M1299.7,797.67a2.833,2.833,0,1,1,2.833-2.833A2.836,2.836,0,0,1,1299.7,797.67Zm0-4.166a1.333,1.333,0,1,0,1.333,1.333A1.334,1.334,0,0,0,1299.7,793.5Z"/><path class="a" d="M1299.7,802.879c-4.435,0-8.159-2.58-11.068-7.67a.748.748,0,0,1,0-.744c2.909-5.09,6.633-7.67,11.068-7.67s8.159,2.58,11.068,7.67a.753.753,0,0,1,0,.744C1307.86,800.3,1304.137,802.879,1299.7,802.879Zm-9.549-8.042c2.616,4.4,5.743,6.542,9.549,6.542s6.934-2.141,9.548-6.542c-2.614-4.4-5.741-6.542-9.548-6.542S1292.768,790.436,1290.152,794.837Z"/></g></svg>