<?xml version="1.0" encoding="utf-8"?>
<!-- Generator: Adobe Illustrator 25.2.0, SVG Export Plug-In . SVG Version: 6.00 Build 0)  -->
<svg version="1.1" id="Layer_1" xmlns="http://www.w3.org/2000/svg" xmlns:xlink="http://www.w3.org/1999/xlink" x="0px" y="0px"
	 viewBox="0 0 22 22" style="enable-background:new 0 0 22 22;" xml:space="preserve">
<style type="text/css">
	.st0{fill:#FFFFFF;}
</style>
<path class="st0" d="M18.32,6.61h-0.59c0.26-0.45,0.43-0.97,0.43-1.52c0-1.69-1.38-3.03-3.07-3.02c-1.63,0-3.1,1.15-4.05,3.07
	C10.1,3.22,8.63,2.06,7.01,2.06C5.33,2.04,3.92,3.4,3.92,5.09c0,0.56,0.16,1.08,0.43,1.52H3.76c-0.92,0-1.66,0.75-1.66,1.66v1.82
	c0,0.92,0.75,1.66,1.66,1.66h0.16v5.62c0,1.42,1.15,2.57,2.57,2.57h9.1c1.42,0,2.57-1.15,2.57-2.57v-5.62h0.16
	c0.92,0,1.66-0.74,1.66-1.66V8.27C19.98,7.36,19.23,6.61,18.32,6.61z M15.1,3.56c0.86,0,1.56,0.67,1.56,1.52
	c0,0.84-0.68,1.52-1.52,1.52h-3.09C12.71,4.75,13.87,3.56,15.1,3.56z M5.42,5.09c0-0.84,0.68-1.52,1.54-1.52c0.01,0,0.02,0,0.03,0
	c1.22,0,2.37,1.19,3.04,3.05H6.95C6.1,6.61,5.42,5.93,5.42,5.09z M3.6,10.09V8.27c0-0.09,0.07-0.16,0.16-0.16h6.53v2.14H3.76
	C3.67,10.25,3.6,10.18,3.6,10.09z M5.42,17.37v-5.62h4.87v6.69h-3.8C5.9,18.44,5.42,17.96,5.42,17.37z M16.66,17.37
	c0,0.59-0.48,1.07-1.07,1.07h-3.8v-6.69h4.87V17.37z M18.48,10.09c0,0.09-0.07,0.16-0.16,0.16h-6.53V8.11h6.53
	c0.09,0,0.16,0.07,0.16,0.16V10.09z"/>
</svg>
