<!-- Generator: Adobe Illustrator 25.4.1, SVG Export Plug-In . SVG Version: 6.00 Build 0)  -->
<svg version="1.1" id="Layer_1" xmlns="http://www.w3.org/2000/svg" xmlns:xlink="http://www.w3.org/1999/xlink" x="0px" y="0px"
	 viewBox="0 0 52.1 52.1" style="enable-background:new 0 0 52.1 52.1;" xml:space="preserve">
<style type="text/css">
	.st0{fill:#00D3CF;}
</style>
<g>
	<g>
		<path class="st0" d="M43.5,37.5c0.1,0.1,0.2,0.3,0.2,0.4c0,1.3,0,2.6,0,3.8c0,0.2-0.2,0.5-0.3,0.6c-2.1,1.3-4.3,2.5-6.5,3.7
			c-0.1,0.1-0.2,0-0.3,0c0.1-0.2,0.1-0.4,0.1-0.6c0-1.3,0-2.6,0-3.9c0.3-0.2,0.5-0.3,0.8-0.5c1.4-0.8,2.8-1.5,4.1-2.3
			C42.3,38.3,42.9,37.9,43.5,37.5z"/>
	</g>
	<g>
		<path class="st0" d="M35.8,45.6c0.2,1-0.5,1.4-1.3,1.8c-1.9,1.1-3.8,2.2-5.7,3.2c0-1.3,0-2.6,0-3.9c0-0.2-0.1-0.4-0.1-0.7
			c0.5-0.3,1.1-0.6,1.6-0.9c1.4-0.8,2.7-1.6,4.1-2.4c0.3-0.2,0.6-0.5,1-0.8c0.4,0,0.3,0.3,0.3,0.5C35.7,43.6,35.7,44.6,35.8,45.6z"
			/>
	</g>
	<g>
		<path class="st0" d="M28.7,46.1c0,0.2,0.1,0.4,0.1,0.7c0,1.3,0,2.6,0,3.9c-0.8-0.4-1.7-0.9-2.5-1.4c-2.4-1.4-4.8-2.8-7.2-4.2
			c0.2-0.1,0.3-0.3,0.5-0.4c0.8-0.5,1.6-0.9,2.4-1.4c0.6,0.3,1.1,0.6,1.7,0.9c0.3,0.2,0.6,0.4,0.9,0.5c0.2,0.1,0.4,0.2,0.6,0.3
			c0.5,0.3,1,0.5,1.5,0.8c0.2-0.1,0.4-0.2,0.6-0.3c0.2-0.1,0.3-0.1,0.4-0.2C28,45.6,28.3,45.9,28.7,46.1z"/>
	</g>
	<g>
		<path class="st0" d="M43.5,37.5c-0.6,0.4-1.2,0.9-1.9,1.3c-1.4,0.8-2.8,1.5-4.1,2.3c-0.3,0.2-0.5,0.3-0.8,0.5
			c-0.4-0.2-0.9-0.4-1.3-0.6c1-0.6,2-1.2,3-1.8c0,0,0,0,0.1,0c0.1-0.1,0.2-0.1,0.4-0.2c0.1-0.1,0.2-0.1,0.2-0.1
			c1-0.6,2.1-1.2,3.1-1.8c0.1,0,0.1,0,0.2-0.1c0.1,0,0.2,0,0.3,0c0.1,0,0.1,0,0.2,0C43,37.1,43.2,37.3,43.5,37.5z"/>
	</g>
	<g>
		<path class="st0" d="M35.4,40.9c0.4,0.2,0.9,0.4,1.3,0.6c0,1.3,0,2.6,0,3.9c0,0.2-0.1,0.4-0.1,0.6c-0.3-0.1-0.5-0.3-0.8-0.4
			c0-1-0.1-2-0.1-3c0-0.2,0.1-0.5-0.3-0.5c-0.3-0.2-0.6-0.4-0.9-0.6C34.8,41.3,35.1,41.1,35.4,40.9z"/>
	</g>
	<g>
		<path class="st0" d="M34.4,41.4c0.3,0.2,0.6,0.4,0.9,0.6c-0.3,0.3-0.6,0.5-1,0.8c-1.4,0.8-2.7,1.6-4.1,2.4
			c-0.5,0.3-1.1,0.6-1.6,0.9c-0.3-0.2-0.7-0.5-1-0.7c0.1-0.1,0.1-0.1,0.1-0.2c0.2-0.1,0.3-0.2,0.4-0.3c0.8-0.5,1.6-0.9,2.4-1.4
			c0.1-0.1,0.3-0.1,0.4-0.2C32.2,42.7,33.3,42.1,34.4,41.4z"/>
	</g>
	<g>
		<path class="st0" d="M8.5,11.1c1-0.6,1.9-1.1,2.7-1.6c4.4-2.5,8.8-5,13.2-7.6c0.7-0.4,1.3-0.5,2.1,0c3.7,2.2,7.5,4.4,11.2,6.5
			c1.3,0.8,2.7,1.5,4,2.3c0.2,0.1,0.4,0.2,0.6,0.4c-5.7,3.3-11.3,6.5-17,9.8C19.8,17.6,14.2,14.4,8.5,11.1z"/>
	</g>
	<g>
		<path class="st0" d="M39.1,36.1c-0.2,0.3-0.4,0.5-0.5,0.7s-0.3,0.5-0.5,0.7c-0.3-0.1-0.5-0.2-0.7-0.3c-0.7,1.1-1.4,2.2-2.2,3.3
			c-0.7-0.3-1.4-0.5-2.2-0.8c0.1,0.4,0.2,0.7,0.3,1.1c-0.7-0.3-1.3,0.1-1.9-0.1c-0.4-0.2-0.8-0.3-1.3,0.1c-0.3,0.2-0.9,0.1-1.4,0.1
			c-0.3,0-0.7-0.1-1-0.2c-0.8-0.2-1.5-0.2-2.2,0.4c-0.5-0.3-1-0.6-1.5-0.9c-0.5-0.3-1-0.5-1.5-0.1c-0.1,0.1-0.3,0-0.6,0
			c0.3-0.3,0.5-0.5,0.7-0.6c0-0.1,0-0.1-0.1-0.2c-0.8-0.5-1.6-0.9-2.4-1.4c-0.5-0.3-0.9-0.2-1.4,0.2c0.2,0.3,0.4,0.7,0.6,1
			c0.1,0.3,0.3,0.5,0.4,0.8c0,0.1-0.1,0.2-0.1,0.3c-0.1,0.1-0.3,0.1-0.3,0c-0.2-0.2-0.3-0.4-0.5-0.6c-0.3-0.4-0.5-0.8-0.7-1.3
			c-0.6,0.3-1.1,0.5-1.7,0.7c-0.3,0.1-0.5,0.1-0.7-0.3c0.6-0.3,1.3-0.6,1.9-1c-0.1-0.6-0.8-1-0.5-1.6c-1.1-0.7-2.2-1.3-3.3-2
			c-0.1-1-0.2-2,0.1-2.9c0.3-0.9,0.5-1.9,0.7-2.8c0.1-0.3,0.1-0.6,0.1-0.9c0-1.4,0-2.9,0-4.3c0-0.6,0.4-1.1,1-1.2
			c0.2,0,0.3,0,0.5,0.1c0.5,0.2,0.9,0.5,1.3,0.7c0.4,0.2,0.5,0.5,0.5,0.9c0,1.4,0,2.8,0,4.2c0,0.4,0.1,0.7,0.3,1
			c2.2,2.7,4.5,5.5,6.7,8.2c0,0,0.1,0,0.1,0.1c0-0.2,0-0.4,0-0.6c0-2.3,0-4.6,0-6.9c0-0.5-0.1-1-0.1-1.4c-0.1-0.5,0.1-1,0.6-1.2
			c0.9-0.5,1.9-1.1,2.8-1.6c0.3-0.2,0.5-0.2,0.8,0c1.4,0.8,2.8,1.6,4.4,2.4c-0.8,0.5-1.4,0.8-2.1,1.2c0,0.8,0,1.6,0,2.5
			c0.8-0.2,1.4-0.7,2-1.1c0.1-0.1,0.2-0.4,0.2-0.6c0-0.6,0-1.1,0-1.8c0.3,0.1,0.5,0.2,0.8,0.4c1.1-1,2.2-2,3.5-2.8
			c0.3,0.7,0,1.4,0.2,2.1c0.6-0.4,1.3-0.7,1.8-1.1c0.2-0.1,0.3-0.4,0.3-0.6c0.1-0.4,0.1-0.7,0-1.1c-0.1-0.5,0.2-0.8,0.6-1
			c0.3-0.1,0.6-0.2,1-0.4c0,1.3,0,2.5,0,3.7c0.1,0.1,0.2,0.2,0.3,0.2c0.4,0.3,1.1,0.3,1.1,0.9c0,0.9,0.3,1.8-0.4,2.6
			c-1,1.2-1.8,2.4-2.7,3.7c-0.2,0.2-0.3,0.4-0.6,0.5L39.1,36.1z"/>
	</g>
	<g>
		<path class="st0" d="M40.5,18.6c0.3-0.2,0.6-0.4,0.9-0.5c0.3-0.2,0.5-0.3,1-0.5c0,0.6,0,1.1,0,1.5c-0.1,0.6,0.1,0.9,0.7,1.1
			c0.2,0.1,0.3,0.2,0.5,0.3c-0.2,0.4-0.6,0.4-0.9,0.5c-1.5,0.6-3.1,1.2-4.4,2.1c-1,0.7-1.9,1.4-2.8,2.2c-0.3,0.3-0.6,0.5-1,0.3
			c-1.7-1-3.4-2-5.2-3c0.3-0.4,0.6-0.7,0.9-0.9c1.6-1.3,3.2-2.5,5.1-3.3c0.9-0.4,1.7-0.7,2.6-1.1c0.3-0.1,0.5,0,0.8,0.1
			C39.2,17.9,39.8,18.2,40.5,18.6z"/>
	</g>
	<g>
		<path class="st0" d="M16.4,41.7c-0.5-0.1-0.5-0.5-0.8-0.8c-0.2-0.3-0.5-0.6-0.8-0.9c-0.4,0.1-0.9,0.2-1.3,0.3c0.1-0.6,0.6-0.6,1-1
			c-0.3-0.6-0.5-1.3-0.9-1.9c-0.5-0.8-1-1.6-1.4-2.5c-0.3-0.5-0.6-1-0.9-1.5c-0.2-0.3-0.5-0.3-0.8-0.2c-0.2,0.1-0.5,0.1-0.7,0.2
			c0,0-0.1-0.1-0.2-0.2c0.5-0.3,1-0.6,1.6-1C12.8,35.5,15,38.4,16.4,41.7z"/>
	</g>
	<g>
		<path class="st0" d="M15.4,46.8c-1.8-1-3.5-2.1-5.3-3c-1.1-0.5-1.6-1.2-1.4-2.5c0.1-0.9,0.1-1.9,0.1-2.8c0.2,0,0.3,0,0.5,0
			c1,0.6,2,1.2,3,1.8c0.4,0.2,0.8,0.4,1.2,0.7c0.6,0.4,1.3,0.7,1.9,1.1c0,0.1,0,0.1,0,0.2C15.4,43.8,15.4,45.3,15.4,46.8z"/>
	</g>
	<g>
		<path class="st0" d="M15.4,46.8c0-1.5,0-3,0-4.5c0.7,0.3,1.3,0.7,2,1c0.3-0.2,0.7-0.4,1-0.7c0.2-0.1,0.4-0.2,0.5-0.3
			c0.5-0.3,1-0.6,1.5-0.8c0.2-0.1,0.4-0.2,0.5-0.3c0.4-0.1,0.7-0.3,1.1-0.4c0,0.2,0,0.4,0,0.5c0,0.2,0,0.4,0,0.7
			c0,0.3-0.1,0.6-0.1,0.9c-0.9,0.5-1.9,1.1-2.8,1.6c-0.2,0.1-0.4,0.3-0.6,0.4c-1,0.5-1.9,1-2.9,1.5C15.6,46.7,15.5,46.7,15.4,46.8z"
			/>
	</g>
	<g>
		<path class="st0" d="M8.6,36.9c-0.2,0-0.3-0.2-0.3-0.3V11.4c0-0.2,0.2-0.3,0.3-0.3S9,11.3,9,11.4v25.1C9,36.7,8.8,36.9,8.6,36.9z"
			/>
	</g>
	<g>
		<path class="st0" d="M42.2,16.2c-0.2,0-0.3-0.2-0.3-0.3v-4.4c0-0.2,0.2-0.3,0.3-0.3s0.3,0.2,0.3,0.3v4.4
			C42.6,16.1,42.4,16.2,42.2,16.2z"/>
	</g>
</g>
</svg>
