<?xml version="1.0" encoding="utf-8"?>
<!-- Generator: Adobe Illustrator 25.2.0, SVG Export Plug-In . SVG Version: 6.00 Build 0)  -->
<svg version="1.1" id="Layer_1" xmlns="http://www.w3.org/2000/svg" xmlns:xlink="http://www.w3.org/1999/xlink" x="0px" y="0px"
	 viewBox="0 0 15.5 15.5" style="enable-background:new 0 0 15.5 15.5;" xml:space="preserve">
<style type="text/css">
	.st0{fill:#067C82;}
</style>
<g>
	<g>
		<path class="st0" d="M0,7.8C0,3.5,3.5,0,7.8,0c4.3,0,7.8,3.5,7.8,7.8s-3.5,7.8-7.8,7.8C3.5,15.5,0,12,0,7.8z M1.3,7.8
			c0,3.6,2.9,6.5,6.5,6.5c3.6,0,6.5-2.9,6.5-6.5s-2.9-6.5-6.5-6.5C4.2,1.3,1.3,4.2,1.3,7.8z"/>
	</g>
</g>
<g id="Polygon_1_5_">
	<path class="st0" d="M5.3,9.4c0.1,0,0.2,0,0.3-0.1l5.2-2.2C11,7,11.2,6.8,11.2,6.5c0-0.3-0.2-0.5-0.4-0.6L5.5,3.7
		c-0.3-0.1-0.7,0-0.9,0.3C4.6,4.4,4.7,4.8,5,4.9l3.8,1.6L5,8.1C4.7,8.2,4.6,8.6,4.7,9C4.8,9.2,5,9.4,5.3,9.4z"/>
</g>
<g>
	<path class="st0" d="M5.3,11.4h5.2c0.4,0,0.7-0.3,0.7-0.7c0-0.4-0.3-0.7-0.7-0.7H5.3c-0.4,0-0.7,0.3-0.7,0.7
		C4.6,11.2,4.9,11.4,5.3,11.4z"/>
</g>
</svg>
