<?xml version="1.0" encoding="utf-8"?>
<!-- Generator: Adobe Illustrator 25.2.0, SVG Export Plug-In . SVG Version: 6.00 Build 0)  -->
<svg version="1.1" id="Layer_1" xmlns="http://www.w3.org/2000/svg" xmlns:xlink="http://www.w3.org/1999/xlink" x="0px" y="0px"
	 viewBox="0 0 22 22" style="enable-background:new 0 0 22 22;" xml:space="preserve">
<style type="text/css">
	.st0{fill:#00D3CF;}
</style>
<path class="st0" d="M13.1,5.4c-0.2,0.2-0.4,0.6-0.4,0.9c0,0.3,0.1,0.7,0.4,0.9l2.6,2.6l-12.5,0C2.5,9.7,2,10.3,2,11V11
	c0,0.3,0.1,0.6,0.4,0.9c0.2,0.2,0.6,0.4,0.9,0.4l12.5,0l-2.5,2.5c-0.2,0.2-0.4,0.6-0.4,0.9s0.1,0.6,0.4,0.9c0.5,0.5,1.3,0.5,1.8,0
	l4.7-4.7c0.2-0.2,0.3-0.3,0.3-0.6l0-0.1c0,0,0-0.1,0-0.1c0,0,0,0,0-0.1l0-0.1l0,0l0,0l0,0v-0.1l0-0.2v0l0,0l0-0.1
	c0-0.2-0.1-0.4-0.3-0.5l-4.7-4.7C14.4,4.9,13.6,4.9,13.1,5.4z M19.8,11.3L19.8,11.3L19.8,11.3L19.8,11.3z"/>
</svg>
