<?xml version="1.0" encoding="utf-8"?>
<!-- Generator: Adobe Illustrator 25.2.0, SVG Export Plug-In . SVG Version: 6.00 Build 0)  -->
<svg version="1.1" id="Layer_1" xmlns="http://www.w3.org/2000/svg" xmlns:xlink="http://www.w3.org/1999/xlink" x="0px" y="0px"
	 viewBox="0 0 22 22" style="enable-background:new 0 0 22 22;" xml:space="preserve">
<style type="text/css">
	.st0{fill:#CC0000;}
	.st1{fill:#FFFFFF;}
</style>
<path class="st0" d="M11,2.1c-4.9,0-8.9,4-8.9,8.9s4,8.9,8.9,8.9c4.9,0,8.9-4,8.9-8.9S15.9,2.1,11,2.1z"/>
<g>
	<path class="st1" d="M17.2,14.2l-5.8-9.6c-0.1-0.2-0.4-0.3-0.6-0.3c-0.2,0-0.5,0.1-0.6,0.4l-5.5,9.6c-0.1,0.2-0.1,0.5,0,0.7
		c0.1,0.2,0.4,0.3,0.6,0.3h11.2c0.2,0,0.5-0.1,0.6-0.4C17.3,14.7,17.3,14.4,17.2,14.2z M15.4,13.8H6.6l4.3-7.5L15.4,13.8z"/>
	<g>
		<path class="st1" d="M10.8,11.7c0.4,0,0.7-0.3,0.7-0.6V8.5c0-0.4-0.3-0.6-0.7-0.6s-0.7,0.3-0.7,0.6V11
			C10.1,11.4,10.4,11.7,10.8,11.7z"/>
		<circle class="st1" cx="10.8" cy="12.8" r="0.7"/>
	</g>
</g>
</svg>
