<svg xmlns="http://www.w3.org/2000/svg" width="12" height="12" viewBox="0 0 12 12"><defs><style>.a{fill:#6d6df2;}.b{fill:#fff;}</style></defs><g transform="translate(-1699.968 -870.866)"><circle class="a" cx="6" cy="6" r="6" transform="translate(1699.968 870.866)"/><g transform="translate(1700.44 874.985)"><path class="b" d="M1705.616,898.709a.76.76,0,0,1,.274,1.034l-1.285,2.248a.76.76,0,0,1-1.316-.76l1.292-2.248a.76.76,0,0,1,1.038-.276l0,0Z" transform="translate(-1703.191 -898.605)"/><path class="b" d="M1727.939,899.242l.016.016,1.292,2.248a.76.76,0,0,1-1.3.775l-.016-.016-1.292-2.248a.76.76,0,0,1,1.3-.775Z" transform="translate(-1723.092 -898.879)"/><path class="b" d="M1752.116,898.709a.76.76,0,0,1,.274,1.034l-1.292,2.248a.76.76,0,0,1-1.316-.76l1.292-2.248a.76.76,0,0,1,1.038-.276Z" transform="translate(-1742.759 -898.605)"/><circle class="b" cx="0.744" cy="0.744" r="0.744" transform="translate(9.568 2.266)"/></g></g></svg>