<?xml version="1.0" encoding="utf-8"?>
<!-- Generator: Adobe Illustrator 25.2.0, SVG Export Plug-In . SVG Version: 6.00 Build 0)  -->
<svg version="1.1" id="Layer_1" xmlns="http://www.w3.org/2000/svg" xmlns:xlink="http://www.w3.org/1999/xlink" x="0px" y="0px"
	 viewBox="0 0 22 22" style="enable-background:new 0 0 22 22;" xml:space="preserve">
<style type="text/css">
	.st0{fill:#FFFFFF;}
</style>
<g>
	<path class="st0" d="M20.43,10.25h-0.28V7.91c0-0.98-0.8-1.78-1.78-1.78h-0.28V3.8c0-0.98-0.8-1.78-1.78-1.78H6.03
		c-1.55,0-2.81,1.26-2.81,2.81v4.69h0l0,0.52c0,0.41,0.34,0.75,0.74,0.75c0,0,0.01,0,0.01,0c0.01,0,0.01,0,0.02,0
		c0.39,0,0.72-0.34,0.72-0.75l0-0.53h0v-0.9l0-0.13h0V7.31c0.39,0.21,0.84,0.32,1.31,0.32h12.35c0.15,0,0.28,0.12,0.28,0.28v2.34
		h-1.34c-1.55,0-2.81,1.26-2.81,2.81c0,1.55,1.26,2.81,2.81,2.81h1.34v2.34c0,0.15-0.12,0.28-0.28,0.28H6.03
		c-0.72,0-1.31-0.59-1.31-1.31v-1.96h0l0-0.37c0-0.41-0.34-0.75-0.74-0.75c0,0-0.01,0-0.01,0c-0.01,0-0.01,0-0.02,0
		c-0.39,0-0.73,0.34-0.73,0.75l0,0.74h0v1.6c0,1.55,1.26,2.81,2.81,2.81h12.35c0.98,0,1.78-0.8,1.78-1.78v-2.34h0.28
		c0.41,0,0.75-0.34,0.75-0.75V11C21.18,10.59,20.85,10.25,20.43,10.25z M7.08,6.13H6.03c-0.72,0-1.31-0.59-1.31-1.31
		c0-0.72,0.59-1.31,1.31-1.31h2.25C7.58,4.19,7.14,5.11,7.08,6.13z M8.58,6.13c0.12-1.26,1.17-2.25,2.46-2.25s2.34,0.99,2.46,2.25
		H8.58z M16.59,6.13H15c-0.06-1.02-0.5-1.94-1.19-2.62h2.5c0.15,0,0.28,0.12,0.28,0.28V6.13z M19.68,14.37h-2.37
		c-0.72,0-1.31-0.59-1.31-1.31c0-0.72,0.59-1.31,1.31-1.31h2.37V14.37z"/>
	<path class="st0" d="M7.5,9.08C7.36,9.22,7.28,9.41,7.28,9.62c0,0.2,0.08,0.39,0.22,0.54l1.52,1.52l-7.45-0.01
		c-0.41,0-0.76,0.34-0.76,0.75l0,0.03c0,0.19,0.08,0.38,0.22,0.52c0.14,0.14,0.33,0.22,0.53,0.22l7.45,0.01L7.51,14.7
		c-0.15,0.15-0.22,0.33-0.22,0.53c0,0.2,0.08,0.39,0.22,0.53c0.3,0.3,0.76,0.3,1.06,0l2.79-2.79c0.1-0.1,0.16-0.21,0.2-0.33
		l0.02-0.07c0.01-0.03,0.01-0.04,0.01-0.06c0-0.01,0-0.03,0-0.04l0.01-0.05l-0.02-0.02v0l0.01-0.01l0-0.05l-0.02-0.1l0-0.01
		l-0.01-0.01l-0.02-0.04c-0.03-0.12-0.09-0.23-0.18-0.32L8.57,9.08C8.28,8.79,7.8,8.79,7.5,9.08z M11.5,12.6L11.5,12.6L11.5,12.6
		L11.5,12.6z"/>
</g>
</svg>
