<svg xmlns="http://www.w3.org/2000/svg" width="36.274" height="37.606" viewBox="0 0 36.274 37.606"><defs><style>.a{fill:#00d3cf;}</style></defs><g transform="translate(-9110.618 -1787.739)"><path class="a" d="M2101.017,514.922a8.39,8.39,0,0,1,4.822,2.448,22.723,22.723,0,0,1,2.4,2.819c2.4,3.19,3.437,4.055,5.465,4.723a16.743,16.743,0,0,0,4.525.692c2.35.124,3.24.3,4.08.865a4.163,4.163,0,0,1,1.187,1.261l.222.322-.049-.371a9.739,9.739,0,0,0-2.4-4.748l-.222-.247-.124.519c-.3,1.311-.915,2.25-1.509,2.25a.746.746,0,0,1-.668-.42.723.723,0,0,1,.074-.791,4.194,4.194,0,0,0,.272-2.7,2.374,2.374,0,0,0-.173-.692,10.24,10.24,0,0,0-1.78-1.039,13.79,13.79,0,0,0-7.913-.989l-.643.1-.445-.519a9.993,9.993,0,0,0-5.094-3.412,8.154,8.154,0,0,0-2.324-.2C2100.473,514.823,2100.5,514.848,2101.017,514.922Z" transform="translate(7020.568 1273.381)"/><path class="a" d="M2136.291,519.242c.371.173,1.014.494,1.385.717,1.508.865,1.755,1.385,1.755,3.536a3.6,3.6,0,0,1-.148,1.533c-.173.42-.148.494.049.124a5.305,5.305,0,0,0,.544-2.522c0-.717.024-.865.123-.964.124-.124.149-.124.322-.025a15.059,15.059,0,0,1,1.978,1.558l.421.4-.421-.544c-.247-.3-.889-1.014-1.434-1.583-1.187-1.212-1.261-1.36-1.435-2.473a4.72,4.72,0,0,1,.1-2.176c.074-.2.124-.371.1-.371a1.729,1.729,0,0,0-.222.42,5.351,5.351,0,0,0-.445,2.127c-.025.618-.074.816-.148.89-.1.025-.248,0-1.113-.346a11.024,11.024,0,0,0-2.077-.618A5.611,5.611,0,0,0,2136.291,519.242Z" transform="translate(7001.044 1272.449)"/><path class="a" d="M2104.9,525.254c.618.05.791-.148.519-.544a8.958,8.958,0,0,1-.989-1.78c-.074-.222-.247-.915-.371-1.509-.42-2.027-.865-2.844-1.854-3.437a5.79,5.79,0,0,0-1.582-.594l-.248-.05-.049.519a8.738,8.738,0,0,0,1.558,5.317A5.065,5.065,0,0,0,2104.9,525.254Z" transform="translate(7020.713 1271.951)"/><path class="a" d="M2140.069,546.672a7.223,7.223,0,0,0-5.292-5.762,21.54,21.54,0,0,0-3.783-.791c-3.091-.445-4.2-.791-5.193-1.583a4.744,4.744,0,0,0-.42-.321s-.025.346-.025.766c0,2.893,1.731,4.6,6.627,6.578,3.264,1.31,4.6,1.978,5.638,2.868a4.022,4.022,0,0,1,1.434,2.794c0,.2.05.321.074.321a6.188,6.188,0,0,0,.792-1.78A9.985,9.985,0,0,0,2140.069,546.672Z" transform="translate(7006.763 1260.326)"/><path class="a" d="M2116.023,559.856a17.016,17.016,0,0,1-2.2.445,13.466,13.466,0,0,0-3.709.989,5.6,5.6,0,0,0-1.335.791c.025.025.173-.025.322-.074a14.5,14.5,0,0,1,4.2-.692c.742-.05,1.583-.124,1.879-.148a5.953,5.953,0,0,0,3.709-1.632,4.477,4.477,0,0,0,1.039-1.657,3.154,3.154,0,0,0,.173-1.335,3.084,3.084,0,0,0-.173-1.385,4.35,4.35,0,0,0-.792-1.434l-.222-.272.123.371a5.837,5.837,0,0,1,.247,1.039A4.275,4.275,0,0,1,2116.023,559.856Z" transform="translate(7015.997 1251.839)"/><path class="a" d="M2143.27,560.495a12.635,12.635,0,0,0-3.932-2.893c-1.583-.866-2.2-1.212-2.5-1.409a1.055,1.055,0,0,0-.346-.173c-.049,0-.1.124-.148.247a5.771,5.771,0,0,0,.445,4.006,23.482,23.482,0,0,0,2.028,3.215,15.739,15.739,0,0,1,1.978,3.561,4.906,4.906,0,0,1-.222,3.833,1.965,1.965,0,0,0-.223.544,3.4,3.4,0,0,0,.52-.247,7.29,7.29,0,0,0,3.586-4.747,9.829,9.829,0,0,0,.123-2.943A6.12,6.12,0,0,0,2143.27,560.495Z" transform="translate(7000.743 1250.41)"/><path class="a" d="M2113.695,584.943a3.762,3.762,0,0,1-3.413-.1,3.317,3.317,0,0,1-1.088-1.953c-.025-.148-.148-.841-.247-1.508a7.387,7.387,0,0,0-1.138-3.363,5.508,5.508,0,0,0-3.116-2,9.169,9.169,0,0,0-3.19-.124,13.443,13.443,0,0,0-6.157,2.968l-.52.495.47.074a6.574,6.574,0,0,1,4.872,2.5,4.027,4.027,0,0,0,2.151,1.459,2.312,2.312,0,0,0,2.819-1.335,2.59,2.59,0,0,0-.05-1.681,1.779,1.779,0,0,0-2.646-.568.917.917,0,0,0,.322,1.607c.148.025.148.025-.05-.074a.68.68,0,0,1-.47-.668c-.024-.766.841-1.162,1.632-.816a1.184,1.184,0,0,1,.816,1.212,1.508,1.508,0,0,1-1.706,1.508,2.528,2.528,0,0,1-1.41-.742,1.863,1.863,0,0,1,.643-2.893,3.047,3.047,0,0,1,2.893.272c1.013.668,1.459,1.261,2.324,3.264a13.914,13.914,0,0,0,.816,1.632,3.571,3.571,0,0,0,3.017,1.855,3.5,3.5,0,0,0,1.781-.42,3.773,3.773,0,0,0,1.063-.717A1.694,1.694,0,0,0,2113.695,584.943Z" transform="translate(7023.765 1239.389)"/><path class="a" d="M2083.393,524.514c0,.321-.1.495-.495.94a5.505,5.505,0,0,0-1.187,3.338c-.247,1.953-.914,3.338-2.819,5.688a10.179,10.179,0,0,0-1.558,2.2,4.184,4.184,0,0,0-.495,1.978,6.183,6.183,0,0,0,.322,2.424,8.249,8.249,0,0,0,1.187,2.324,5.744,5.744,0,0,1,.915,1.8c0,.2.05.2.94,0a9.777,9.777,0,0,0,4.847-2.374,2.237,2.237,0,0,0,.742-1.879,2.018,2.018,0,0,0-.173-1.039,4.44,4.44,0,0,0-1.731-1.681c-1.335-.915-1.9-1.657-2.052-2.646-.124-.841.025-1.409.767-2.967a8.875,8.875,0,0,0,1.088-3.907c.074-1.039.2-1.459.494-1.781a1.844,1.844,0,0,1,1.36-.568,4.535,4.535,0,0,0,2.72-1.113,2.324,2.324,0,0,0,.841-1.805l.025-.569-.322-.346c-.709-.816-4.782-5.317-7.863-8.7-.093.072-.186.144-.277.218,4.162,5.233,6.354,8.474,6.731,8.976s.222.964-.4,1.31a3.775,3.775,0,0,1-1.409.4,1.783,1.783,0,0,1-1.187-.519c-.223-.222-1.187-1.632-3.363-5.02-.871-1.365-1.672-2.6-2.241-3.479l-.124.125c.441.795,1.128,2.023,2.192,3.923A43.236,43.236,0,0,1,2083.393,524.514Zm-3.487,15.208a.707.707,0,0,1-1.063.322c-.222-.173-.222-.421-.05-.693s.148-.4-.074-.519a.252.252,0,0,1-.2-.247c0-.371.643-.495,1.063-.223A1.021,1.021,0,0,1,2079.906,539.721Z" transform="translate(7033.79 1273.903)"/><path class="a" d="M2104.638,546.066c1.36,0,2.522-.593,2.646-1.311a1.914,1.914,0,0,0-1.113-1.78,2.516,2.516,0,0,0-1.533-.148,2.2,2.2,0,0,0-1.335,1.459,2.133,2.133,0,0,0,.124,1.336C2103.7,545.968,2103.946,546.066,2104.638,546.066Zm1.335-2.844a.556.556,0,0,1,.247.841,1.365,1.365,0,0,1-.915.4c-.495,0-1.013-.346-1.013-.668C2104.292,543.149,2105.306,542.8,2105.973,543.223Z" transform="translate(7019.073 1257.791)"/></g></svg>