<svg width="120" height="34" viewBox="0 0 120 34" fill="none" xmlns="http://www.w3.org/2000/svg">
    <path d="M37.152 27.0001H45.5415C49.9521 27.0001 52.3011 24.699 52.3011 21.5733C52.3011 18.6681 50.2205 16.9135 47.9865 16.808V16.6162C50.0288 16.156 51.5341 14.7082 51.5341 12.3975C51.5341 9.45396 49.348 7.36376 45.0142 7.36376H37.152V27.0001ZM41.3036 23.6059V18.39H44.7841C46.7784 18.39 48.0153 19.5406 48.0153 21.161C48.0153 22.6376 47.0085 23.6059 44.6882 23.6059H41.3036ZM41.3036 15.5807V10.7196H44.4581C46.299 10.7196 47.3441 11.6688 47.3441 13.0878C47.3441 14.6411 46.0785 15.5807 44.3814 15.5807H41.3036ZM54.3859 27.0001H58.4704V18.6681C58.4704 16.8559 59.7935 15.6095 61.5961 15.6095C62.1618 15.6095 62.9384 15.7054 63.3219 15.83V12.2057C62.9576 12.1194 62.4494 12.0619 62.0371 12.0619C60.388 12.0619 59.0361 13.0207 58.4992 14.8425H58.3457V12.2728H54.3859V27.0001ZM64.8937 27.0001H68.9782V12.2728H64.8937V27.0001ZM66.9456 10.3744C68.1633 10.3744 69.1604 9.44437 69.1604 8.30339C69.1604 7.172 68.1633 6.24195 66.9456 6.24195C65.7375 6.24195 64.7403 7.172 64.7403 8.30339C64.7403 9.44437 65.7375 10.3744 66.9456 10.3744ZM77.137 27.2398C79.5149 27.2398 80.7517 25.8687 81.3174 24.6415H81.49V27.0001H85.517V7.36376H81.4421V14.7466H81.3174C80.7709 13.5481 79.5916 12.0811 77.1274 12.0811C73.8962 12.0811 71.1636 14.5932 71.1636 19.6557C71.1636 24.5839 73.7812 27.2398 77.137 27.2398ZM78.4314 23.9895C76.4275 23.9895 75.3345 22.2061 75.3345 19.6365C75.3345 17.0861 76.4083 15.3314 78.4314 15.3314C80.4161 15.3314 81.5283 17.0094 81.5283 19.6365C81.5283 22.2636 80.397 23.9895 78.4314 23.9895ZM94.9701 32.8297C99.1793 32.8297 102.171 30.9121 102.171 27.1439V12.2728H98.115V14.7466H97.9616C97.4151 13.5481 96.2166 12.0811 93.7525 12.0811C90.5213 12.0811 87.7887 14.5932 87.7887 19.6077C87.7887 24.5072 90.4446 26.7892 93.7621 26.7892C96.1111 26.7892 97.4247 25.6099 97.9616 24.3922H98.1342V27.0864C98.1342 29.1095 96.8398 29.8957 95.066 29.8957C93.2635 29.8957 92.3526 29.1095 92.017 28.2178L88.2393 28.726C88.7283 31.0463 91.0007 32.8297 94.9701 32.8297ZM95.0564 23.721C93.0525 23.721 91.9595 22.1294 91.9595 19.5885C91.9595 17.0861 93.0334 15.3314 95.0564 15.3314C97.0412 15.3314 98.1534 17.0094 98.1534 19.5885C98.1534 22.1869 97.022 23.721 95.0564 23.721ZM111.593 27.2878C115.236 27.2878 117.691 25.514 118.266 22.7814L114.488 22.5321C114.076 23.6539 113.021 24.2388 111.66 24.2388C109.618 24.2388 108.323 22.8868 108.323 20.6912V20.6816H118.352V19.5598C118.352 14.5548 115.323 12.0811 111.43 12.0811C107.096 12.0811 104.287 15.1589 104.287 19.7036C104.287 24.373 107.058 27.2878 111.593 27.2878ZM108.323 18.1503C108.41 16.4724 109.685 15.1301 111.497 15.1301C113.271 15.1301 114.498 16.3957 114.508 18.1503H108.323Z" fill="white"/>
    <circle cx="14.2619" cy="17.0028" r="14.2619" fill="white"/>
    <path fill-rule="evenodd" clip-rule="evenodd" d="M6.60636 23.4643H9.95204C10.5458 23.4643 10.8427 23.4643 11.1101 23.3848C11.4012 23.2982 11.6675 23.1437 11.8871 22.9341C12.0888 22.7416 12.2361 22.484 12.5305 21.9688L16.9109 14.3058C17.2011 13.7981 17.3463 13.5441 17.41 13.2764C17.4792 12.9849 17.4791 12.6813 17.4096 12.3898C17.3457 12.1221 17.2003 11.8684 16.9097 11.361L16.9097 11.3609L16.9096 11.3609L15.2202 8.41115C14.8205 7.71324 14.6206 7.36428 14.3668 7.23466C14.0926 7.09459 13.7676 7.09483 13.4936 7.2353C13.24 7.3653 13.0406 7.71454 12.6419 8.41303L5.31668 21.246L5.31654 21.2463L5.31653 21.2463C4.92364 21.9346 4.72719 22.2787 4.74308 22.561C4.76026 22.8661 4.92219 23.1446 5.17891 23.3106C5.41645 23.4643 5.81309 23.4643 6.60636 23.4643ZM18.0094 23.4641H21.8884C22.69 23.4641 23.0909 23.4641 23.3292 23.3089C23.5868 23.1413 23.7481 22.8603 23.7631 22.5535C23.7769 22.2697 23.5747 21.9239 23.1703 21.2323L21.2276 17.9104L21.2275 17.9102C20.8289 17.2285 20.6295 16.8876 20.3775 16.7602C20.1052 16.6225 19.7834 16.6227 19.5112 16.7608C19.2594 16.8886 19.0605 17.2299 18.6628 17.9122L16.7265 21.2342C16.3236 21.9253 16.1222 22.2709 16.1363 22.5545C16.1515 22.8611 16.313 23.1417 16.5705 23.3091C16.8087 23.4641 17.209 23.4641 18.0094 23.4641Z" fill="#181B1D"/>
</svg>
