<?xml version="1.0" encoding="utf-8"?>
<!-- Generator: Adobe Illustrator 25.2.0, SVG Export Plug-In . SVG Version: 6.00 Build 0)  -->
<svg version="1.1" id="Layer_1" xmlns="http://www.w3.org/2000/svg" xmlns:xlink="http://www.w3.org/1999/xlink" x="0px" y="0px"
	 viewBox="0 0 15.5 15.5" style="enable-background:new 0 0 15.5 15.5;" xml:space="preserve">
<style type="text/css">
	.st0{fill:#067C82;}
</style>
<g>
	<g>
		<path class="st0" d="M7.8,15.5C3.5,15.5,0,12,0,7.8S3.5,0,7.8,0c4.3,0,7.8,3.5,7.8,7.8S12,15.5,7.8,15.5z M7.8,1.3
			c-3.6,0-6.5,2.9-6.5,6.5s2.9,6.5,6.5,6.5c3.6,0,6.5-2.9,6.5-6.5S11.3,1.3,7.8,1.3z"/>
	</g>
</g>
<g id="Polygon_1_5_">
	<path class="st0" d="M10.2,9.4c-0.1,0-0.2,0-0.3-0.1L4.8,7.1C4.5,7,4.4,6.8,4.4,6.5c0-0.3,0.2-0.5,0.4-0.6L10,3.7
		c0.3-0.1,0.7,0,0.9,0.3c0.1,0.3,0,0.7-0.3,0.9L6.7,6.5l3.8,1.6C10.8,8.2,11,8.6,10.8,9C10.7,9.2,10.5,9.4,10.2,9.4z"/>
</g>
<g>
	<path class="st0" d="M10.2,11.4H5c-0.4,0-0.7-0.3-0.7-0.7c0-0.4,0.3-0.7,0.7-0.7h5.2c0.4,0,0.7,0.3,0.7,0.7
		C10.9,11.2,10.6,11.4,10.2,11.4z"/>
</g>
</svg>
