<?xml version="1.0" encoding="utf-8"?>
<!-- Generator: Adobe Illustrator 25.2.0, SVG Export Plug-In . SVG Version: 6.00 Build 0)  -->
<svg version="1.1" id="Layer_1" xmlns="http://www.w3.org/2000/svg" xmlns:xlink="http://www.w3.org/1999/xlink" x="0px" y="0px"
	 viewBox="0 0 22 22" style="enable-background:new 0 0 22 22;" xml:space="preserve">
<style type="text/css">
	.st0{fill:#067C82;}
</style>
<g>
	<circle class="st0" cx="11" cy="16.16" r="0.82"/>
</g>
<path class="st0" d="M11.36,5.61h-0.72C8.85,5.61,7.4,6.9,7.4,8.48c0,0.39,0.32,0.71,0.71,0.71c0.39,0,0.71-0.32,0.71-0.71
	c0-0.8,0.81-1.45,1.81-1.45h0.72c1,0,1.81,0.66,1.81,1.49c0.04,0.65-0.37,1.24-1.03,1.48c-1.17,0.55-1.92,1.98-1.85,3.56
	c0.02,0.38,0.33,0.68,0.71,0.68h0.03h0.01c0.39-0.02,0.7-0.35,0.68-0.74c-0.04-0.98,0.38-1.9,0.97-2.18
	c1.2-0.42,1.99-1.59,1.92-2.83C14.59,6.9,13.14,5.61,11.36,5.61z"/>
<g>
	<path class="st0" d="M11,19.94c-4.93,0-8.94-4.01-8.94-8.94S6.07,2.06,11,2.06c4.93,0,8.94,4.01,8.94,8.94S15.93,19.94,11,19.94z
		 M11,3.56C6.9,3.56,3.56,6.9,3.56,11S6.9,18.44,11,18.44c4.1,0,7.44-3.34,7.44-7.44S15.1,3.56,11,3.56z"/>
</g>
</svg>
