<?xml version="1.0" encoding="utf-8"?>
<!-- Generator: Adobe Illustrator 25.2.0, SVG Export Plug-In . SVG Version: 6.00 Build 0)  -->
<svg version="1.1" id="Layer_1" xmlns="http://www.w3.org/2000/svg" xmlns:xlink="http://www.w3.org/1999/xlink" x="0px" y="0px"
	 viewBox="0 0 22 22" style="enable-background:new 0 0 22 22;" xml:space="preserve">
<style type="text/css">
	.st0{fill:#067C82;}
</style>
<g>
	<path class="st0" d="M18.24,5.72h-3.78V3.76c0-0.91-0.74-1.66-1.66-1.66H9.19c-0.91,0-1.66,0.74-1.66,1.66v1.96H3.76
		c-0.41,0-0.75,0.34-0.75,0.75s0.34,0.75,0.75,0.75h0.22l0.84,10.11c0,1.41,1.15,2.56,2.56,2.56h7.24c1.41,0,2.56-1.15,2.56-2.5
		l0.85-10.17h0.22c0.41,0,0.75-0.34,0.75-0.75S18.65,5.72,18.24,5.72z M9.03,3.76c0-0.09,0.07-0.16,0.16-0.16h3.62
		c0.09,0,0.16,0.07,0.16,0.16v1.96H9.03V3.76z M15.68,17.34c0,0.58-0.48,1.06-1.06,1.06H7.38c-0.58,0-1.06-0.48-1.06-1.12L5.48,7.22
		h11.04L15.68,17.34z"/>
	<path class="st0" d="M9.19,9.34c-0.41,0-0.75,0.34-0.75,0.75v5.43c0,0.41,0.34,0.75,0.75,0.75s0.75-0.34,0.75-0.75v-5.43
		C9.94,9.68,9.6,9.34,9.19,9.34z"/>
	<path class="st0" d="M12.81,9.34c-0.41,0-0.75,0.34-0.75,0.75v5.43c0,0.41,0.34,0.75,0.75,0.75s0.75-0.34,0.75-0.75v-5.43
		C13.56,9.68,13.22,9.34,12.81,9.34z"/>
</g>
</svg>
