<?xml version="1.0" encoding="utf-8"?>
<!-- Generator: Adobe Illustrator 25.2.0, SVG Export Plug-In . SVG Version: 6.00 Build 0)  -->
<svg version="1.1" id="Layer_1" xmlns="http://www.w3.org/2000/svg" xmlns:xlink="http://www.w3.org/1999/xlink" x="0px" y="0px"
	 viewBox="0 0 22 22" style="enable-background:new 0 0 22 22;" xml:space="preserve">
<style type="text/css">
	.st0{fill:#1C646C;}
</style>
<path class="st0" d="M14.84,13.65c0.97-1.23,1.56-2.78,1.56-4.47c0-3.99-3.24-7.23-7.23-7.23S1.94,5.19,1.94,9.18
	s3.24,7.23,7.23,7.23c1.69,0,3.24-0.59,4.47-1.56l4.96,4.96c0.17,0.17,0.38,0.25,0.6,0.25s0.44-0.08,0.6-0.25
	c0.33-0.33,0.33-0.87,0-1.2L14.84,13.65z M3.64,9.18c0-3.05,2.48-5.53,5.53-5.53s5.53,2.48,5.53,5.53s-2.48,5.53-5.53,5.53
	S3.64,12.23,3.64,9.18z"/>
</svg>
