<?xml version="1.0" encoding="utf-8"?>
<!-- Generator: Adobe Illustrator 25.3.1, SVG Export Plug-In . SVG Version: 6.00 Build 0)  -->
<svg version="1.1" id="Layer_1" xmlns="http://www.w3.org/2000/svg" xmlns:xlink="http://www.w3.org/1999/xlink" x="0px" y="0px"
	 viewBox="0 0 14.2 17.9" style="enable-background:new 0 0 14.2 17.9;" xml:space="preserve">
<style type="text/css">
	.st0{fill:#ffffff;}
</style>
<path class="st0" d="M11.7,7.3H4.2V4.4c0-1.6,1.3-2.9,2.9-2.9c1.6,0,2.9,1.3,2.9,2.9c0,0.4,0.3,0.8,0.8,0.8s0.8-0.3,0.8-0.8
	c0-2.4-2-4.4-4.4-4.4c-2.4,0-4.4,2-4.4,4.4v2.9H2.6C1.2,7.3,0,8.5,0,9.9v5.5c0,1.4,1.2,2.6,2.6,2.6h9.1c1.4,0,2.6-1.2,2.6-2.6V9.9
	C14.2,8.5,13.1,7.3,11.7,7.3z M12.7,15.3c0,0.6-0.5,1.1-1.1,1.1H2.6c-0.6,0-1.1-0.5-1.1-1.1V9.9c0-0.6,0.5-1.1,1.1-1.1h9.1
	c0.6,0,1.1,0.5,1.1,1.1V15.3z"/>
<path class="st0" d="M7.1,10.2c-1.3,0-2.4,1.1-2.4,2.4S5.8,15,7.1,15c1.3,0,2.4-1.1,2.4-2.4S8.4,10.2,7.1,10.2z M7.1,13.5
	c-0.5,0-0.9-0.4-0.9-0.9c0-0.5,0.4-0.9,0.9-0.9c0.5,0,0.9,0.4,0.9,0.9C8,13.1,7.6,13.5,7.1,13.5z"/>
</svg>
