<?xml version="1.0" encoding="utf-8"?>
<!-- Generator: Adobe Illustrator 25.2.0, SVG Export Plug-In . SVG Version: 6.00 Build 0)  -->
<svg version="1.1" id="Layer_1" xmlns="http://www.w3.org/2000/svg" xmlns:xlink="http://www.w3.org/1999/xlink" x="0px" y="0px"
	 viewBox="0 0 22 22" style="enable-background:new 0 0 22 22;" xml:space="preserve">
<style type="text/css">
	.st0{fill:#FFFFFF;}
	.st1{fill:#21325B;}
	.st2{fill:#979695;}
</style>
<circle class="st0" cx="11" cy="11" r="8.9"/>
<g id="circle">
	<g id="Group_3">
		<path id="Path_1" class="st1" d="M6.5,10.6c0-0.4,0.3-0.7,0.7-0.7c0,0,0,0,0,0l1.1,0c0.4,0,0.7,0.3,0.7,0.7l0,0v4.2
			c0.1,0,0.3-0.1,0.5-0.1c0.3-0.1,0.4-0.3,0.4-0.5V9c0-0.4,0.3-0.7,0.7-0.7h1.1c0.4,0,0.7,0.3,0.7,0.7v4.8c0,0,0.3-0.1,0.5-0.2
			c0.2-0.1,0.3-0.3,0.3-0.5V7.3c0-0.4,0.3-0.7,0.7-0.7h1.1c0.4,0,0.7,0.3,0.7,0.7V12c1-0.7,1.9-1.5,2.7-2.5c0.2-0.3,0.3-0.7,0.2-1
			c-1.4-4.1-5.9-6.3-10-4.8C4.4,5,2.2,9.5,3.6,13.6C3.8,14,4,14.5,4.2,14.9c0.2,0.3,0.6,0.5,0.9,0.5c0.2,0,0.5,0,0.8-0.1
			c0.3,0,0.5-0.3,0.5-0.6L6.5,10.6"/>
		<path id="Path_2" class="st2" d="M6.4,17.3c3.5,2.5,8.4,1.8,11-1.7c1-1.3,1.5-3,1.5-4.6c0-0.2,0-0.4,0-0.5
			C16,14.7,10.7,16.7,6.4,17.3"/>
	</g>
</g>
</svg>
