<?xml version="1.0" encoding="utf-8"?>
<!-- Generator: Adobe Illustrator 25.2.0, SVG Export Plug-In . SVG Version: 6.00 Build 0)  -->
<svg version="1.1" id="Layer_1" xmlns="http://www.w3.org/2000/svg" xmlns:xlink="http://www.w3.org/1999/xlink" x="0px" y="0px"
	 viewBox="0 0 22 22" style="enable-background:new 0 0 22 22;" xml:space="preserve">
<style type="text/css">
	.st0{fill:#067C82;}
</style>
<g>
	<g>
		<path class="st0" d="M11,19.94c-4.93,0-8.94-4.01-8.94-8.94S6.07,2.06,11,2.06s8.94,4.01,8.94,8.94S15.93,19.94,11,19.94z
			 M11,3.56C6.9,3.56,3.56,6.9,3.56,11S6.9,18.44,11,18.44s7.44-3.34,7.44-7.44S15.1,3.56,11,3.56z"/>
	</g>
</g>
<g>
	<path class="st0" d="M9.32,14.77c-0.01,0-0.03,0-0.04,0c-0.2-0.01-0.39-0.11-0.52-0.26l-2.99-3.47c-0.27-0.31-0.24-0.79,0.08-1.06
		c0.31-0.27,0.79-0.24,1.06,0.08l2.48,2.88l5.3-4.83c0.31-0.28,0.78-0.26,1.06,0.05C16.02,8.47,16,8.95,15.7,9.23l-5.87,5.35
		C9.69,14.7,9.51,14.77,9.32,14.77z"/>
</g>
</svg>
