<?xml version="1.0" encoding="utf-8"?>
<!-- Generator: Adobe Illustrator 25.2.0, SVG Export Plug-In . SVG Version: 6.00 Build 0)  -->
<svg version="1.1" id="Layer_1" xmlns="http://www.w3.org/2000/svg" xmlns:xlink="http://www.w3.org/1999/xlink" x="0px" y="0px"
	 viewBox="0 0 22 22" style="enable-background:new 0 0 22 22;" xml:space="preserve">
<style type="text/css">
	.st0{fill:#067C82;}
</style>
<g>
	<path class="st0" d="M16.2,3.8h-1.1V2.7c0-0.4-0.3-0.7-0.7-0.7c-0.4,0-0.7,0.3-0.7,0.7v1.1H7.9V2.7c0-0.4-0.3-0.7-0.7-0.7
		c-0.4,0-0.7,0.3-0.7,0.7v1.1H5.3c-1.4,0-2.6,1.2-2.6,2.6v10.9c0,1.4,1.2,2.6,2.6,2.6h10.9c1.4,0,2.6-1.2,2.6-2.6V6.3
		C18.8,4.9,17.6,3.8,16.2,3.8z M5.3,5.3h1.1v1.1c0,0.4,0.3,0.7,0.7,0.7c0.4,0,0.7-0.3,0.7-0.7V5.3h5.8v1.1c0,0.4,0.3,0.7,0.7,0.7
		c0.4,0,0.7-0.3,0.7-0.7V5.3h1.1c0.6,0,1.1,0.5,1.1,1.1v2.9h-13V6.3C4.2,5.7,4.7,5.3,5.3,5.3z M16.2,18.3H5.3
		c-0.6,0-1.1-0.5-1.1-1.1v-6.5h13v6.5C17.3,17.8,16.8,18.3,16.2,18.3z"/>
	<path class="st0" d="M9.1,12.9H7.3c-0.4,0-0.7,0.3-0.7,0.7v1.8c0,0.4,0.3,0.7,0.7,0.7h1.8c0.4,0,0.7-0.3,0.7-0.7v-1.8
		C9.9,13.2,9.6,12.9,9.1,12.9z M8.4,14.7H8.1v-0.3h0.3V14.7z"/>
	<path class="st0" d="M14.4,12.9h-1.8c-0.4,0-0.7,0.3-0.7,0.7v1.8c0,0.4,0.3,0.7,0.7,0.7h1.8c0.4,0,0.7-0.3,0.7-0.7v-1.8
		C15.1,13.2,14.8,12.9,14.4,12.9z M13.6,14.7h-0.3v-0.3h0.3V14.7z"/>
</g>
</svg>
