<svg xmlns="http://www.w3.org/2000/svg" width="36.046" height="33.013" viewBox="0 0 36.046 33.013"><defs><style>.a{fill:#00d3cf;}</style></defs><g transform="translate(-2013.859 -647.985)"><g transform="translate(2013.859 647.985)"><path class="a" d="M2039.511,653.2c-7.678-5.42-15.809-6.775-18.218-3.312l-6.926,10.088.044.03c-1.74,2.955.757,7.95,5.762,12.571a6.56,6.56,0,0,0,3.529-2.213,17.8,17.8,0,0,1,2.465-2.268,2.991,2.991,0,0,1,2.2-.743c1.054,0,2.258,1.054,4.216,3.614s4.667,3.312,6.323,1.957c.151-.15.3-.15.452-.3a7.665,7.665,0,0,0,1.382-1.29c-.4-.122-.865-.244-1.231-.366-.15,0-.15-.151-.15-.3s.15-.15.3-.15c.278.092.611.185.933.278.159.046.311.092.456.137.092-.127.186-.264.286-.416.161-.243.334-.52.525-.84a20.239,20.239,0,0,1-2.734-.782,32.025,32.025,0,0,1-7.445-3.948,34.227,34.227,0,0,1-6.656-5.882c-2.835-3.342-4-6.533-2.679-8.422l.017-.021c2.129-2.981,9.486-1.472,16.544,3.484,4.4,3.089,7.691,6.7,9.084,9.715a4.818,4.818,0,0,1,1.305.222,5.707,5.707,0,0,1,0,4.969C2051.556,665.547,2047.341,658.32,2039.511,653.2Zm-19.121,0c.151-.151.3,0,.3.15a2.94,2.94,0,0,1,.151,1.054c.151.15,0,.3-.151.3-.15.15-.3,0-.3-.151a3.835,3.835,0,0,0-.3-1.054C2020.089,653.351,2020.24,653.351,2020.39,653.2Zm10.69,13.55c-.151,0-.3.151-.452,0a28.655,28.655,0,0,1-8.383-8.485,19.249,19.249,0,0,1-1.253-2.356c0-.151,0-.151.15-.3s.3,0,.3.15a19.827,19.827,0,0,0,1.5,2.667,27.952,27.952,0,0,0,8.14,7.872C2031.08,666.45,2031.23,666.6,2031.08,666.751Z" transform="translate(-2013.859 -647.985)"/><path class="a" d="M2050.44,664.465c-.023.028-.051.051-.071.081-1.054,1.506,1.053,4.667,4.517,7.076,3.613,2.409,7.227,3.162,8.281,1.656.02-.028.031-.061.048-.091.918-1.538-1.168-4.622-4.565-6.986C2055.107,663.84,2051.571,663.076,2050.44,664.465Z" transform="translate(-2035.406 -657.373)"/></g><path class="a" d="M2058.56,687.266a4.817,4.817,0,0,0-1.305-.222c.827,1.791.981,3.37.3,4.5-.017.028-.031.058-.048.085-1.05,1.5-3.407,1.878-6.382,1.268-.191.32-.364.6-.525.84-.1.151-.195.288-.286.416l.117.037c.151,0,.151.15.151.3s-.151.15-.3.15l-.009,0c-.083-.028-.175-.055-.266-.083a7.672,7.672,0,0,1-1.382,1.29c-.151.151-.3.151-.452.3-1.656,1.355-4.366.6-6.323-1.957s-3.162-3.614-4.216-3.614a2.991,2.991,0,0,0-2.2.743,17.788,17.788,0,0,0-2.465,2.268,6.561,6.561,0,0,1-3.528,2.213,39.17,39.17,0,0,0,3.98,3.207c7.6,5.367,15.645,6.745,18.141,3.41l.077.053,6.926-10.238A5.709,5.709,0,0,0,2058.56,687.266Zm-3.313,7.829a14.834,14.834,0,0,1-3.613-.15.3.3,0,1,1,0-.6,14.541,14.541,0,0,0,3.613.151.3.3,0,1,1,0,.6Z" transform="translate(-9.262 -23.225)"/></g></svg>