<?xml version="1.0" encoding="utf-8"?>
<!-- Generator: Adobe Illustrator 25.2.0, SVG Export Plug-In . SVG Version: 6.00 Build 0)  -->
<svg version="1.1" id="Layer_1" xmlns="http://www.w3.org/2000/svg" xmlns:xlink="http://www.w3.org/1999/xlink" x="0px" y="0px"
	 viewBox="0 0 22 22" style="enable-background:new 0 0 22 22;" xml:space="preserve">
<style type="text/css">
	.st0{fill:#08333c;}
</style>
<path class="st0" d="M5.72,18.02l5.08-5.08l5.08,5.08c0.45,0.45,1.19,0.45,1.65,0c0.45-0.45,0.45-1.19,0-1.65l-5.08-5.08l5.08-5.08
	c0.45-0.45,0.45-1.19,0-1.65c-0.45-0.45-1.19-0.45-1.65,0L10.8,9.65L5.72,4.56c-0.45-0.45-1.19-0.45-1.65,0
	c-0.45,0.45-0.45,1.19,0,1.65l5.08,5.08l-5.08,5.08c-0.45,0.45-0.45,1.19,0,1.65C4.53,18.48,5.27,18.48,5.72,18.02z"/>
</svg>
