<?xml version="1.0" encoding="utf-8"?>
<!-- Generator: Adobe Illustrator 25.2.0, SVG Export Plug-In . SVG Version: 6.00 Build 0)  -->
<svg version="1.1" id="Layer_1" xmlns="http://www.w3.org/2000/svg" xmlns:xlink="http://www.w3.org/1999/xlink" x="0px" y="0px"
	 viewBox="0 0 22 22" style="enable-background:new 0 0 22 22;" xml:space="preserve">
<style type="text/css">
	.st0{fill:#FFFFFF;}
</style>
<g>
	<g id="Group_132" transform="translate(0 2.109)">
		<path id="Path_53" class="st0" d="M11.01,18.05c-0.26,0-0.52-0.01-0.78-0.03c-4.98-0.42-8.67-4.79-8.25-9.77
			c0.2-2.39,1.35-4.6,3.18-6.15c0.37-0.3,0.92-0.24,1.21,0.14c0.29,0.36,0.24,0.88-0.1,1.18c-3.08,2.6-3.47,7.22-0.86,10.3
			c2.61,3.09,7.22,3.48,10.31,0.87s3.48-7.22,0.87-10.31c-0.26-0.31-0.56-0.6-0.87-0.87c-0.36-0.31-0.41-0.85-0.1-1.22
			c0.31-0.36,0.85-0.41,1.22-0.1c0.39,0.33,0.75,0.69,1.08,1.08c3.22,3.82,2.74,9.52-1.08,12.75C15.2,17.29,13.14,18.04,11.01,18.05
			L11.01,18.05z"/>
	</g>
	<g id="Group_133" transform="translate(8.18)">
		<path id="Path_54" class="st0" d="M2.81,12.06c-0.48,0-0.86-0.39-0.86-0.86V2.75c0-0.48,0.39-0.86,0.86-0.86s0.86,0.39,0.86,0.86
			v8.44C3.68,11.67,3.29,12.06,2.81,12.06z"/>
	</g>
</g>
</svg>
