<svg xmlns="http://www.w3.org/2000/svg" width="38.208" height="38.458" viewBox="0 0 38.208 38.458"><defs><style>.a{fill:#00d3cf;}</style></defs><g transform="translate(-2195.529 -371.391)"><path class="a" d="M2242.32,444.164c-3.014,1.412-5.919,2.533-6.662,6.041l.855.363h1.715l3.577-.641A5.809,5.809,0,0,1,2242.32,444.164Z" transform="translate(-22.454 -40.72)"/><path class="a" d="M2196.289,420.54c.044.214.308.528.492.544.718.064,1.445.026,2.128.026-.7-1.408-1.317-2.8-2.071-4.124-.27-.472-.863-.76-1.309-1.132v.514c.07.329.152.656.209.988C2195.92,418.418,2196.072,419.486,2196.289,420.54Z" transform="translate(0 -24.879)"/><path class="a" d="M2196.37,405.343c-.217.1-.26.2-.279.3q-.285,1.565-.563,3.132v.171l.841.107Z" transform="translate(0 -18.998)"/><path class="a" d="M2213.852,387.453a3.424,3.424,0,0,0,1.736-.526c2.054-1.5,4.056-3.065,6.052-4.64.471-.372.7-.3.981.19a13.712,13.712,0,0,0,1.248,1.84,9.009,9.009,0,0,0,3.71,2.87l-2.663-6.308.14-.189c2.364,1.786,4.88,2.787,7.93,1.673-1.384-1.743-3.365-2.1-5.31-2.715,1.189-.722,2.278-1.328,3.307-2.024a7.645,7.645,0,0,0,2.6-2.767c-3.088-.96-5.339.98-7.855,1.913a5.451,5.451,0,0,1,.781-1.049,5.414,5.414,0,0,0,1.442-3.04c.129-1.024-.083-1.308-1.1-1.291a7.527,7.527,0,0,0-5.4,2.419c-.2.207-.427.4-.78.723-.117-.874-.207-1.533-.3-2.2a1.255,1.255,0,0,0-.315.048,8.606,8.606,0,0,0-4.809,6.849c-.349,2.511-.594,5.044-1.9,7.3C2213.017,387.126,2213.315,387.486,2213.852,387.453Zm5.783-8.583c.218-.03.484.292.932.6-.431.332-.714.7-.891.652-.276-.071-.48-.421-.715-.653C2219.183,379.253,2219.387,378.9,2219.634,378.87Zm-3.09-.343c.284.474.588.754.554.984s-.4.432-.614.645c-.21-.23-.564-.447-.589-.7C2215.874,379.236,2216.213,378.977,2216.545,378.527Z" transform="translate(-9.895)"/><path class="a" d="M2220.593,406.635c.63-.3,1.066-.37,1.324.424,2.182-.552,4.107.1,6.168,1.4,0-1.149.035-2.026-.011-2.9a1.631,1.631,0,0,0-1.154-1.687,3.418,3.418,0,0,1-1.223-.774c-1.411-1.313-2.789-2.661-4.257-4.072a7.5,7.5,0,0,0-2.356,2.614c-.535,1.038-1.1,2.064-1.727,3.051a7.57,7.57,0,0,1-4.088,3.345c-.212.069-.353.357-.527.544.265.092.543.292.793.26A23.052,23.052,0,0,0,2220.593,406.635Z" transform="translate(-9.632 -15.462)"/><path class="a" d="M2251.427,393.777a8.006,8.006,0,0,1-2.211.575c-1.428.013-2.857-.175-4.263-.277.483,1.2,1.077,2.524,1.546,3.9a1.315,1.315,0,0,0,1.024.971,9.92,9.92,0,0,0,6.605-.482c2-.837,2.007-.855,1.6-2.949a6.077,6.077,0,0,0-6.64-5.235,5.335,5.335,0,0,1,.769.489,26.3,26.3,0,0,1,1.936,1.9C2252.2,393.13,2252.03,393.588,2251.427,393.777Z" transform="translate(-27.655 -10.56)"/><path class="a" d="M2231.738,420.575c-3.553-2.342-5.534-2.112-8.059.834a15.069,15.069,0,0,0-2.533-1.146c-.845-.211-1.13.215-.774,1.012q1.1,2.457,2.3,4.865a.928.928,0,0,0,.807.369,32.548,32.548,0,0,0,4.609-1.452A6.724,6.724,0,0,0,2231.738,420.575Z" transform="translate(-13.817 -26.633)"/><path class="a" d="M2253.591,373.994c1.065.5,1.208.867.558,1.823a16.452,16.452,0,0,1-1.533,1.828,12,12,0,0,1-.973.88c1.233.387,2.5.717,3.708,1.179a9.06,9.06,0,0,0,5.709.7c-1.906-4.436-8.7-9.252-12.183-8.7-.08.863-.16,1.73-.245,2.64.382-.129.748-.27,1.124-.375A5.311,5.311,0,0,1,2253.591,373.994Z" transform="translate(-29.713 -0.149)"/><path class="a" d="M2258.533,409.738a11.309,11.309,0,0,1-8.752,1.074c.063,1.322.105,2.46.182,3.6a.6.6,0,0,0,.287.451,11.672,11.672,0,0,0,6.182.686C2258.436,415.085,2259,412.116,2258.533,409.738Z" transform="translate(-30.356 -21.457)"/><path class="a" d="M2274.26,419.707a3.962,3.962,0,0,1-1.356-.688,22.053,22.053,0,0,1-1.649-1.73,23.717,23.717,0,0,0-.424,2.391,13.111,13.111,0,0,0,.281,5.248,2.418,2.418,0,0,0,1.675,1.824,18.312,18.312,0,0,0,2.393-5.261C2275.571,420.1,2275.569,420.128,2274.26,419.707Z" transform="translate(-42.064 -25.681)"/><path class="a" d="M2250.57,423.961a6.634,6.634,0,0,0,.19,1.043,37.44,37.44,0,0,0,1.607,4.09,1.24,1.24,0,0,0,2.094.378,18.182,18.182,0,0,0,2.6-2.879,11.939,11.939,0,0,0,1.05-2.239C2255.473,425.25,2253.074,424.591,2250.57,423.961Z" transform="translate(-30.798 -29.415)"/><path class="a" d="M2215.72,449.613a18.536,18.536,0,0,0,7.758,2.814,6.266,6.266,0,0,1,2.008-4.006c-1.537-.155-3-.385-4.475-.432A7.472,7.472,0,0,0,2215.72,449.613Z" transform="translate(-11.298 -42.856)"/><path class="a" d="M2255.725,437.986c-4.248,2.168-5.9,5.367-4.177,8.264l5.215-2.567C2254.877,441.9,2255.232,439.965,2255.725,437.986Z" transform="translate(-30.968 -37.263)"/><path class="a" d="M2276.2,406.089a4.971,4.971,0,0,1-3.811-1.717,9.964,9.964,0,0,0,.865,5.146,3.547,3.547,0,0,0,2.656,2.059c.419.075.823.092.82-.526-.008-1.452.013-2.905-.034-4.357C2276.685,406.477,2276.356,406.08,2276.2,406.089Z" transform="translate(-42.99 -18.454)"/><path class="a" d="M2265.483,430.107l-.3-.055c-.588,1.652-1.248,3.282-1.738,4.962a3.146,3.146,0,0,0,.459,2.935c.289.367.609.523,1,.14,1.047-1.033,2.092-2.069,3.208-3.174C2266.037,433.818,2265.737,431.974,2265.483,430.107Z" transform="translate(-37.907 -32.823)"/><path class="a" d="M2236.9,432.052c-2.167,1.79-4.53,3.183-5.1,6.167,1.9.109,3.68.325,5.379-.6C2236.152,435.84,2236.514,434.02,2236.9,432.052Z" transform="translate(-20.292 -33.942)"/><path class="a" d="M2198.092,430.159l2.7,4.852,3.67-.806C2203.33,431.173,2201.152,429.692,2198.092,430.159Z" transform="translate(-1.434 -32.836)"/><path class="a" d="M2270.445,396.978a4.9,4.9,0,0,0,3.124,2.21c.524.1.917-.03.751-.637-.394-1.447-.836-2.882-1.307-4.307a.769.769,0,0,0-.621-.35c-1.231.055-2.458.166-3.694.259C2269.221,395.007,2269.778,396.031,2270.445,396.978Z" transform="translate(-40.942 -12.591)"/><path class="a" d="M2213.673,435.939c1.267,3.221,4.045,3.735,6.73,4.272l1.675-3.468A12.835,12.835,0,0,1,2213.673,435.939Z" transform="translate(-10.152 -36.117)"/><path class="a" d="M2246.37,425.192a35.256,35.256,0,0,0-1.257,4.593,9.61,9.61,0,0,0,.082,2.785c.057.473.365.836.984.507,1.031-.546,2.087-1.046,3.27-1.633C2247.36,429.787,2247.014,427.449,2246.37,425.192Z" transform="translate(-27.703 -30.104)"/><path class="a" d="M2206.3,442.894l3.045,2.817,3.347-1.812C2210.681,443.215,2208.9,441.235,2206.3,442.894Z" transform="translate(-6.026 -39.647)"/></g></svg>